<svg xmlns="http://www.w3.org/2000/svg" width="26.192" height="32" viewBox="0 0 26.192 32">
  <g id="Contract" transform="translate(-86.9)">
    <path id="Path_12" data-name="Path 12" d="M218.425,108.4h-.936v22.988a2.774,2.774,0,0,1-2.77,2.77H197.7v.852a1.768,1.768,0,0,0,1.768,1.768h18.954a1.768,1.768,0,0,0,1.768-1.768V110.168A1.766,1.766,0,0,0,218.425,108.4Z" transform="translate(-107.097 -104.778)" fill="#416be0"/>
    <path id="Path_13" data-name="Path 13" d="M98.141,28.378h9.477a1.768,1.768,0,0,0,1.768-1.768V1.768A1.768,1.768,0,0,0,107.618,0H94.99V.585A1.717,1.717,0,0,1,95,.772V5.614a2.492,2.492,0,0,1-2.49,2.49H87.669c-.05,0-.1,0-.154-.007H86.9V26.61a1.768,1.768,0,0,0,1.768,1.768h9.474Zm.358-6.008H92.32a.835.835,0,1,1,0-1.671H98.5a.835.835,0,1,1,0,1.671Zm6.182-4.264H92.32a.835.835,0,1,1,0-1.671h12.361a.835.835,0,0,1,0,1.671Zm-12.361-6.2h12.361a.835.835,0,0,1,0,1.671H92.32a.835.835,0,1,1,0-1.671Z" transform="translate(0 0)" fill="#416be0"/>
    <path id="Path_14" data-name="Path 14" d="M88.293,7.874h4.855a1.483,1.483,0,0,0,1.47-1.47V1.545A.744.744,0,0,0,93.87.8a.724.724,0,0,0-.521.221L87.765,6.6A.744.744,0,0,0,88.293,7.874Z" transform="translate(-0.624 -0.773)" fill="#416be0"/>
  </g>
</svg>
