<svg xmlns="http://www.w3.org/2000/svg" width="24" height="24" viewBox="0 0 24 24">
  <g id="contracts" transform="translate(-81 -260)">
    <rect id="Rectangle_458" data-name="Rectangle 458" width="24" height="24" transform="translate(81 260)" fill="none"/>
    <g id="Contract" transform="translate(-2.9 261)">
      <path id="Path_12" data-name="Path 12" d="M211.949,108.4h-.643v15.8a1.907,1.907,0,0,1-1.9,1.9H197.7v.586a1.216,1.216,0,0,0,1.215,1.215h13.031a1.216,1.216,0,0,0,1.215-1.215V109.615A1.214,1.214,0,0,0,211.949,108.4Z" transform="translate(-108.254 -105.91)" fill="#fff"/>
      <path id="Path_13" data-name="Path 13" d="M94.628,19.51h6.515a1.216,1.216,0,0,0,1.215-1.215V1.215A1.216,1.216,0,0,0,101.144,0H92.462V.4a1.181,1.181,0,0,1,.007.129V3.86a1.713,1.713,0,0,1-1.712,1.712H87.428c-.034,0-.071,0-.106,0H86.9V18.294a1.216,1.216,0,0,0,1.215,1.215h6.513Zm.246-4.131H90.626a.574.574,0,1,1,0-1.149h4.25a.574.574,0,1,1,0,1.149Zm4.25-2.931h-8.5a.574.574,0,1,1,0-1.149h8.5a.574.574,0,1,1,0,1.149Zm-8.5-4.262h8.5a.574.574,0,1,1,0,1.149h-8.5a.574.574,0,1,1,0-1.149Z" transform="translate(0 0)" fill="#fff"/>
      <path id="Path_14" data-name="Path 14" d="M88.06,5.664H91.4a1.02,1.02,0,0,0,1.011-1.011V1.312A.511.511,0,0,0,91.894.8a.5.5,0,0,0-.358.152L87.7,4.791A.512.512,0,0,0,88.06,5.664Z" transform="translate(-0.631 -0.782)" fill="#fff"/>
    </g>
  </g>
</svg>
