<svg xmlns="http://www.w3.org/2000/svg" width="20" height="20" viewBox="0 0 20 20">
  <g id="globe" transform="translate(-860 -241)">
    <rect id="Rectangle_467" data-name="Rectangle 467" width="20" height="20" transform="translate(860 241)" fill="none"/>
    <g id="Icon_feather-globe" data-name="Icon feather-globe" transform="translate(859 240)">
      <path id="Path_231" data-name="Path 231" d="M20,11.5A8.5,8.5,0,1,1,11.5,3,8.5,8.5,0,0,1,20,11.5Z" transform="translate(0 0)" fill="none" stroke="#3163f0" stroke-linecap="round" stroke-linejoin="round" stroke-width="1.5"/>
      <path id="Path_232" data-name="Path 232" d="M3,18H20" transform="translate(0 -6.5)" fill="none" stroke="#3163f0" stroke-linecap="round" stroke-linejoin="round" stroke-width="1.5"/>
      <path id="Path_233" data-name="Path 233" d="M15.4,3a13,13,0,0,1,3.4,8.5A13,13,0,0,1,15.4,20,13,13,0,0,1,12,11.5,13.005,13.005,0,0,1,15.4,3Z" transform="translate(-3.9)" fill="none" stroke="#3163f0" stroke-linecap="round" stroke-linejoin="round" stroke-width="1.5"/>
    </g>
  </g>
</svg>
