<svg xmlns="http://www.w3.org/2000/svg" width="32.022" height="32" viewBox="0 0 32.022 32">
  <g id="network" transform="translate(-296 -315)">
    <path id="Path_5" data-name="Path 5" d="M33.172,10.576,18.784,2.22a1.539,1.539,0,0,0-1.6,0L2.8,10.576a1.709,1.709,0,0,0,0,2.925l14.387,8.356a1.539,1.539,0,0,0,1.6,0L33.172,13.5a1.709,1.709,0,0,0,0-2.925Z" transform="translate(294.026 313.004)" fill="#fff"/>
    <path id="Path_6" data-name="Path 6" d="M31.6,15.219,18,23.124l-13.6-7.9a1.574,1.574,0,0,0-2.2.627,1.726,1.726,0,0,0,.6,2.3L17.181,26.5a1.538,1.538,0,0,0,1.6,0l14.387-8.356a1.726,1.726,0,0,0,.6-2.3,1.574,1.574,0,0,0-2.2-.627Z" transform="translate(294.031 320.276)" fill="#fff"/>
    <path id="Path_7" data-name="Path 7" d="M31.6,11.219,18,19.124l-13.6-7.9a1.574,1.574,0,0,0-2.2.627,1.726,1.726,0,0,0,.6,2.3L17.181,22.5a1.538,1.538,0,0,0,1.6,0l14.387-8.356a1.726,1.726,0,0,0,.6-2.3,1.574,1.574,0,0,0-2.2-.627Z" transform="translate(294.031 318.039)" fill="#fff"/>
  </g>
</svg>
