<svg xmlns="http://www.w3.org/2000/svg" width="52" height="52" viewBox="0 0 52 52">
  <g id="login" transform="translate(-0.481)">
    <rect id="Rectangle_550" data-name="Rectangle 550" width="52" height="52" transform="translate(0.481)" fill="none"/>
    <g id="Login-2" data-name="Login" transform="translate(5 1)">
      <path id="Path_797" data-name="Path 797" d="M18.625,49.387a3.613,3.613,0,1,1-3.613-3.613A3.613,3.613,0,0,1,18.625,49.387Zm7.661-3.613a3.63,3.63,0,1,1-.016,0Zm11.273,0a3.63,3.63,0,1,1-.016,0Zm11.273,0a3.63,3.63,0,1,1-.016,0Zm-5.823-7.23H20.75a3.868,3.868,0,0,1-3.862-3.862l.074-14.036a3.873,3.873,0,0,1,2.954-3.772v-2.7h0v-.228a11.836,11.836,0,0,1,3.623-8.553A11.958,11.958,0,0,1,31.906,2h.271a12.166,12.166,0,0,1,11.6,12.182v2.656a3.868,3.868,0,0,1,3.15,3.8L46.85,34.672a3.867,3.867,0,0,1-3.841,3.873ZM35.519,27.388a3.618,3.618,0,1,0,0,.005Zm1.541-13.281a5.247,5.247,0,0,0-5.238-5.382,5.132,5.132,0,0,0-3.448,1.328,5.212,5.212,0,0,0-1.737,3.878v2.848H37.059Z" transform="translate(-11.4 -2)" fill="#0089ff"/>
    </g>
  </g>
</svg>
