<svg xmlns="http://www.w3.org/2000/svg" width="31.801" height="32" viewBox="0 0 31.801 32">
  <g id="XDC_logo" data-name="XDC logo" transform="translate(-17.5 -13)">
    <path id="Combined_Shape" data-name="Combined Shape" d="M15.9,32A16,16,0,0,1,0,17.8L3.593,16,0,14.2a16,16,0,0,1,31.8,0L28.208,16,31.8,17.8A16,16,0,0,1,15.9,32Z" transform="translate(17.5 13)" fill="#fff"/>
    <path id="X" d="M2.474,12.25,5.115,7.757,7.749,12.25h2.482L6.445,6.074,10.147,0H7.69L5.115,4.425,2.541,0H.084l3.71,6.074L0,12.25Z" transform="translate(28.258 22.904)" fill="#416be0"/>
  </g>
</svg>
