<svg xmlns="http://www.w3.org/2000/svg" width="52" height="52" viewBox="0 0 52 52">
  <g id="wallet" transform="translate(-0.125)">
    <rect id="Rectangle_551" data-name="Rectangle 551" width="52" height="52" transform="translate(0.125)" fill="none"/>
    <g id="Wallet-2" data-name="Wallet" transform="translate(8 8)">
      <path id="Path_798" data-name="Path 798" d="M14.9,11V24.213H34.719V11Zm8.06,9.249A2.643,2.643,0,1,1,25.6,17.606,2.65,2.65,0,0,1,22.96,20.249Z" transform="translate(2.145 0.892)" fill="#0089ff"/>
      <path id="Path_799" data-name="Path 799" d="M39,10.588h-21.4a1.806,1.806,0,0,0-1.85,1.85h0V28.426a1.806,1.806,0,0,0,1.85,1.85H39v4.757a3.834,3.834,0,0,1-3.832,3.832H5.832A3.644,3.644,0,0,1,2,35.164V5.832A3.834,3.834,0,0,1,5.832,2H35.164A3.834,3.834,0,0,1,39,5.832Z" transform="translate(-2 -2)" fill="#0089ff"/>
    </g>
  </g>
</svg>
