<svg xmlns="http://www.w3.org/2000/svg" width="24" height="24" viewBox="0 0 24 24">
  <g id="Xmartly" transform="translate(-22 -170)">
    <rect id="Rectangle_545" data-name="Rectangle 545" width="24" height="24" transform="translate(22 170)" fill="none"/>
    <g id="Group_764" data-name="Group 764" transform="translate(1827.999 -1157.648)">
      <path id="Path_2" data-name="Path 2" d="M1.611.073,5.378.038,9.415,0A1.559,1.559,0,0,1,11,1.58a1.632,1.632,0,0,1-1.611,1.61l-3.877.036-3.926.037A1.559,1.559,0,0,1,0,1.683,1.632,1.632,0,0,1,1.611.073Z" transform="matrix(0.719, 0.695, -0.695, 0.719, -1801.731, 1329.649)" fill="#7389c9"/>
      <path id="Path_3" data-name="Path 3" d="M1.611.073,9.415,0A1.559,1.559,0,0,1,11,1.58a1.632,1.632,0,0,1-1.611,1.61l-7.8.072A1.559,1.559,0,0,1,0,1.683,1.632,1.632,0,0,1,1.611.073Z" transform="matrix(0.719, 0.695, -0.695, 0.719, -1791.389, 1339.568)" fill="#5f7ed5"/>
      <path id="Path_4" data-name="Path 4" d="M1.581,0l7.8.073a1.632,1.632,0,0,1,1.611,1.611A1.559,1.559,0,0,1,9.411,3.264l-7.8-.073A1.632,1.632,0,0,1,0,1.581,1.559,1.559,0,0,1,1.581,0Z" transform="translate(-1783.578 1331.957) rotate(135)" fill="#8ca6f0"/>
      <path id="Path_5" data-name="Path 5" d="M1.581,0l7.8.073a1.632,1.632,0,0,1,1.611,1.611A1.559,1.559,0,0,1,9.411,3.264l-7.8-.073A1.632,1.632,0,0,1,0,1.581,1.559,1.559,0,0,1,1.581,0Z" transform="translate(-1793.821 1341.876) rotate(135)" fill="#7593e6"/>
    </g>
  </g>
</svg>
