<svg xmlns="http://www.w3.org/2000/svg" width="12" height="12" viewBox="0 0 12 12">
  <g id="Add" transform="translate(-36 -36)">
    <g id="Group_9" data-name="Group 9" transform="translate(36 36)">
      <g id="Group_8" data-name="Group 8">
        <g id="Group_7" data-name="Group 7">
          <path id="Path_15" data-name="Path 15" d="M15.143,10.857v4.286H10.857A.857.857,0,0,0,10,16h0a.857.857,0,0,0,.857.857h4.286v4.286A.857.857,0,0,0,16,22h0a.857.857,0,0,0,.857-.857V16.857h4.286A.857.857,0,0,0,22,16h0a.857.857,0,0,0-.857-.857H16.857V10.857A.857.857,0,0,0,16,10h0A.857.857,0,0,0,15.143,10.857Z" transform="translate(-10 -10)" fill="#416be0"/>
        </g>
      </g>
    </g>
  </g>
</svg>
