<svg id="Add" xmlns="http://www.w3.org/2000/svg" width="17.055" height="17.055" viewBox="0 0 17.055 17.055">
  <path id="Path_17" data-name="Path 17" d="M39.951,35H38.3v3.3H35v1.65h3.3v3.3h1.65v-3.3h3.3V38.3h-3.3Z" transform="translate(-30.599 -30.599)" fill="#fff"/>
  <path id="Path_18" data-name="Path 18" d="M33.029,19h-11A3.026,3.026,0,0,0,19,22.026v11a3.026,3.026,0,0,0,3.026,3.026h11a3.026,3.026,0,0,0,3.026-3.026v-11A3.026,3.026,0,0,0,33.029,19ZM34.4,33.029A1.375,1.375,0,0,1,33.029,34.4h-11a1.375,1.375,0,0,1-1.375-1.375v-11a1.375,1.375,0,0,1,1.375-1.375h11A1.375,1.375,0,0,1,34.4,22.026Z" transform="translate(-19 -19)" fill="#fff"/>
</svg>
