<svg xmlns="http://www.w3.org/2000/svg" width="43" height="43" viewBox="0 0 43 43">
  <g id="Alert" transform="translate(-1679 -338)">
    <rect id="Rectangle_1143" data-name="Rectangle 1143" width="43" height="43" transform="translate(1679 338)" fill="none"/>
    <g id="Group_6" data-name="Group 6" transform="translate(1416 94)">
      <g id="Notification" transform="translate(281 281)">
        <g id="Group_5" data-name="Group 5" transform="translate(0 0)">
          <path id="Path_11" data-name="Path 11" d="M45,1030.362v1.875a3.125,3.125,0,1,0,6.25,0v-1.875Z" transform="translate(-45 -1030.362)" fill="#0089ff"/>
        </g>
      </g>
      <g id="Notification-2" data-name="Notification" transform="translate(266 273.5)">
        <g id="Group_5-2" data-name="Group 5" transform="translate(0 0)">
          <path id="Path_11-2" data-name="Path 11" d="M24.125,1018.362a3.125,3.125,0,1,0,0,6.25h30a3.125,3.125,0,1,0,0-6.25Z" transform="translate(-21 -1018.362)" fill="#0089ff"/>
        </g>
      </g>
      <g id="Notification-3" data-name="Notification" transform="translate(270.375 246)">
        <g id="Group_5-3" data-name="Group 5" transform="translate(0 0)">
          <path id="Path_11-3" data-name="Path 11" d="M41.75,974.362A13.72,13.72,0,0,0,28,988.112v12.5H55.5v-12.5A13.72,13.72,0,0,0,41.75,974.362Z" transform="translate(-28 -974.362)" fill="#0089ff"/>
        </g>
      </g>
    </g>
  </g>
</svg>
