<svg xmlns="http://www.w3.org/2000/svg" width="24" height="24" viewBox="0 0 24 24">
  <g id="Analytics" transform="translate(-81 -321)">
    <rect id="Rectangle_459" data-name="Rectangle 459" width="24" height="24" transform="translate(81 321)" fill="none"/>
    <g id="Group_283" data-name="Group 283" transform="translate(-260.946 -23)">
      <path id="Path_8" data-name="Path 8" d="M24.626,37.765,15.679,32.6a.361.361,0,0,0-.361,0L6.635,37.61a.367.367,0,0,0-.125.505,10.932,10.932,0,0,0,18.238.16.367.367,0,0,0-.121-.511Z" transform="translate(338.118 323.451)" fill="#fff"/>
      <path id="Path_9" data-name="Path 9" d="M12.342,12.4,3.518,17.5a.333.333,0,0,1-.51-.164A10.947,10.947,0,0,1,12.137,2.082a.367.367,0,0,1,.385.36v9.647A.361.361,0,0,1,12.342,12.4Z" transform="translate(340.865 342.919)" fill="#fff"/>
      <path id="Path_10" data-name="Path 10" d="M33.385,2.082a.367.367,0,0,0-.385.36V12.3a.361.361,0,0,0,.181.313l8.748,5.051a.349.349,0,0,0,.507-.158A10.946,10.946,0,0,0,33.385,2.082Z" transform="translate(321.158 342.919)" fill="#fff"/>
    </g>
  </g>
</svg>
