<svg xmlns="http://www.w3.org/2000/svg" width="152" height="152" viewBox="0 0 152 152">
  <g id="analytics" transform="translate(-1009 -757)">
    <circle id="Ellipse_99" data-name="Ellipse 99" cx="76" cy="76" r="76" transform="translate(1009 757)" fill="none"/>
    <g id="Group_767" data-name="Group 767" transform="translate(1637.992 -1600.467)">
      <path id="Path_8" data-name="Path 8" d="M64.683,49.262,36.011,32.7a1.157,1.157,0,0,0-1.157,0L7.028,48.765a1.175,1.175,0,0,0-.4,1.619c13.279,21.058,44.8,21.352,58.445.514a1.175,1.175,0,0,0-.389-1.636Z" transform="translate(-588.928 2404.9)" fill="none" stroke="#091f5c" stroke-width="3"/>
      <path id="Path_9" data-name="Path 9" d="M34.963,35.155,6.685,51.481a1.067,1.067,0,0,1-1.633-.527C-4.676,29.366,10.631,3.684,34.306,2.083a1.177,1.177,0,0,1,1.235,1.154V34.153A1.157,1.157,0,0,1,34.963,35.155Z" transform="translate(-592.081 2395.495)" fill="none" stroke="#091f5c" stroke-width="3"/>
      <path id="Path_10" data-name="Path 10" d="M34.235,2.083A1.176,1.176,0,0,0,33,3.237V34.824a1.157,1.157,0,0,0,.579,1L61.614,52.013a1.12,1.12,0,0,0,1.624-.507C73.483,29.861,58.125,3.7,34.235,2.083Z" transform="translate(-582.449 2395.495)" fill="#0089ff" stroke="#0089ff" stroke-width="3"/>
    </g>
  </g>
</svg>
