<svg xmlns="http://www.w3.org/2000/svg" xmlns:xlink="http://www.w3.org/1999/xlink" width="29" height="29" viewBox="0 0 29 29">
  <defs>
    <linearGradient id="linear-gradient" x1="1" y1="0.5" x2="-0.007" y2="0.5" gradientUnits="objectBoundingBox">
      <stop offset="0" stop-color="#0079e4"/>
      <stop offset="0.549" stop-color="#0cf"/>
      <stop offset="1" stop-color="#0cf"/>
    </linearGradient>
    <linearGradient id="linear-gradient-2" x1="1" y1="0.485" x2="0" y2="0.485" gradientUnits="objectBoundingBox">
      <stop offset="0" stop-color="#0079e4"/>
      <stop offset="0.349" stop-color="#0cf"/>
      <stop offset="0.651" stop-color="#0cf"/>
      <stop offset="1" stop-color="#0079e4"/>
    </linearGradient>
    <linearGradient id="linear-gradient-3" x1="-0.005" y1="0.5" x2="1" y2="0.5" gradientUnits="objectBoundingBox">
      <stop offset="0" stop-color="#d9dada"/>
      <stop offset="0.278" stop-color="#ebecec"/>
      <stop offset="1" stop-color="#fefefe"/>
    </linearGradient>
    <linearGradient id="linear-gradient-4" x1="0" y1="0.5" y2="0.5" xlink:href="#linear-gradient-3"/>
    <linearGradient id="linear-gradient-5" x1="0.24" y1="-0.154" x2="0.76" y2="1.171" gradientUnits="objectBoundingBox">
      <stop offset="0" stop-color="#fefefe"/>
      <stop offset="0.659" stop-color="#fefefe"/>
      <stop offset="1" stop-color="#c7c7c7"/>
    </linearGradient>
  </defs>
  <g id="apothem_testnet" data-name="apothem testnet" transform="translate(-336 -261)">
    <rect id="Rectangle_401" data-name="Rectangle 401" width="29" height="29" rx="6" transform="translate(336 261)" fill="#017be4"/>
    <g id="Group_214" data-name="Group 214" transform="translate(342.209 267.247)">
      <path id="_251085672" d="M16.81,158.378,8.6,163.2a.46.46,0,0,1-.4,0L0,158.381v2.346a1.44,1.44,0,0,0,.586,1.147c.644.542,7.324,4.29,7.324,4.29a1.231,1.231,0,0,0,.956,0c.453-.226,7.372-4.312,7.372-4.312a1.488,1.488,0,0,0,.58-1.12l-.01-2.354Z" transform="translate(0 -149.492)" fill="#00a0e3"/>
      <path id="_251085480" d="M16.81,158.378,8.6,163.2a.46.46,0,0,1-.4,0L0,158.381v2.346a1.44,1.44,0,0,0,.586,1.147c.644.542,7.324,4.29,7.324,4.29a1.231,1.231,0,0,0,.956,0c.453-.226,7.372-4.312,7.372-4.312a1.488,1.488,0,0,0,.58-1.12l-.01-2.354Z" transform="translate(0 -149.492)" fill="#0cf"/>
      <path id="_251085984" d="M8.41,163.3a.507.507,0,0,1-.208-.044L0,158.436v2.346a1.44,1.44,0,0,0,.586,1.147c.644.542,7.324,4.29,7.324,4.29a1.368,1.368,0,0,0,.5.1V163.3Z" transform="translate(0 -149.547)" fill="url(#linear-gradient)"/>
      <path id="_251085936" d="M71.538,78.348,69.592,77.2a.46.46,0,0,0-.4,0l-1.926,1.163-2.2-1.292-.491-.288C66.6,75.581,68.9,74.243,68.9,74.243a1.231,1.231,0,0,1,.956,0c.235.118,2.363,1.363,4.353,2.533Z" transform="translate(-60.956 -69.982)" fill="url(#linear-gradient-2)"/>
      <path id="_251085576" d="M8.9,9.514a.431.431,0,0,1-.4,0L3.012,6.288,8.5,3.062a.46.46,0,0,1,.4,0l8.21,4.825.01-2.354a1.488,1.488,0,0,0-.58-1.12S9.616.328,9.164.1a1.231,1.231,0,0,0-.956,0S1.528,3.85.884,4.391A1.44,1.44,0,0,0,.3,5.539C.3,6.3.3,7.053.283,7.812c0,.055,7.174,4.238,7.925,4.663a1.113,1.113,0,0,0,.956,0l4.35-2.543,2.678-1.566h0L13.524,6.795,8.9,9.514Z" transform="translate(-0.267 -0.001)" fill="#ffed00"/>
      <path id="_251084904" d="M8.676,9.57A.528.528,0,0,1,8.5,9.524L3.011,6.3,8.5,3.072a.514.514,0,0,1,.179-.044V.011a1.369,1.369,0,0,0-.469.1S1.527,3.859.883,4.4A1.44,1.44,0,0,0,.3,5.548c0,.759,0,1.514-.014,2.274,0,.055,7.174,4.238,7.925,4.663a1.3,1.3,0,0,0,.469.113V9.57Z" transform="translate(-0.266 -0.011)" fill="url(#linear-gradient-3)"/>
      <path id="_251084592" d="M149.892,3.019a.423.423,0,0,1,.219.044l8.21,4.825.01-2.354a1.488,1.488,0,0,0-.58-1.12S150.831.328,150.379.1a1.012,1.012,0,0,0-.487-.1V3.019Z" transform="translate(-141.482 -0.001)" fill="url(#linear-gradient-4)"/>
      <path id="_251084520" d="M14.406,83.739l-.893-.525-4.35,2.543a1.113,1.113,0,0,1-.956,0C7.457,85.333.282,81.15.283,81.095.3,80.308.3,79.522.3,78.735a1.513,1.513,0,0,1,.586-1.062l0,0,.042-.032c-.239.307-.191.584-.055.674L8.5,82.8a.431.431,0,0,0,.4,0l4.627-2.72,2.668,1.572h0l.885.52-2.671,1.57Z" transform="translate(-0.267 -73.283)" fill="url(#linear-gradient-5)"/>
    </g>
  </g>
</svg>
