<svg xmlns="http://www.w3.org/2000/svg" width="43" height="43" viewBox="0 0 43 43">
  <g id="Group_985" data-name="Group 985" transform="translate(-342.946 -345)">
    <path id="Path_8" data-name="Path 8" d="M42.5,42.956l-17.75-10.31a.712.712,0,0,0-.716,0l-17.227,10a.734.734,0,0,0-.248,1.008c8.221,13.112,27.734,13.3,36.182.32a.734.734,0,0,0-.241-1.019Z" transform="translate(339.739 334.402)" fill="#0089ff"/>
    <path id="Path_9" data-name="Path 9" d="M22.556,22.675,4.948,32.841a.664.664,0,0,1-1.017-.328C-2.127,19.071,7.405,3.079,22.147,2.082a.733.733,0,0,1,.769.719v19.25A.72.72,0,0,1,22.556,22.675Z" transform="translate(340.865 342.919)" fill="#0089ff"/>
    <path id="Path_10" data-name="Path 10" d="M33.769,2.082A.733.733,0,0,0,33,2.8V22.469a.72.72,0,0,0,.36.624L50.817,33.173a.7.7,0,0,0,1.011-.316C58.208,19.379,48.644,3.088,33.769,2.082Z" transform="translate(332.108 342.919)" fill="#0089ff"/>
  </g>
</svg>
