<svg xmlns="http://www.w3.org/2000/svg" width="24" height="24" viewBox="0 0 24 24">
  <g id="copy" transform="translate(-955 -202)">
    <rect id="Rectangle_466" data-name="Rectangle 466" width="24" height="24" transform="translate(955 202)" fill="none"/>
    <path id="Icon_material-content-copy" data-name="Icon material-content-copy" d="M14.773,1.5H4.682A1.687,1.687,0,0,0,3,3.182V14.955H4.682V3.182H14.773ZM17.3,4.864H8.045A1.687,1.687,0,0,0,6.364,6.545V18.318A1.687,1.687,0,0,0,8.045,20H17.3a1.687,1.687,0,0,0,1.682-1.682V6.545A1.687,1.687,0,0,0,17.3,4.864Zm0,13.455H8.045V6.545H17.3Z" transform="translate(956 203.5)" fill="#929fc2"/>
  </g>
</svg>
