<svg xmlns="http://www.w3.org/2000/svg" width="22" height="22" viewBox="0 0 22 22">
  <g id="cube" transform="translate(-773 -454)">
    <rect id="Rectangle_474" data-name="Rectangle 474" width="22" height="22" transform="translate(773 454)" fill="none"/>
    <g id="Group_164" data-name="Group 164" transform="translate(774 455)">
      <g id="Path_2" data-name="Path 2" transform="translate(-2.2 -2)" fill="none">
        <path d="M12.2,10.7l9.5-4.384L12.5,2.066a.717.717,0,0,0-.6,0L2.7,6.312Z" stroke="none"/>
        <path d="M 12.20044040679932 9.043576240539551 L 18.11963844299316 6.311473369598389 L 12.20045852661133 3.579591989517212 L 6.281083583831787 6.31157398223877 L 12.20044040679932 9.043576240539551 M 12.20045375823975 10.69563961029053 L 2.701603651046753 6.311569690704346 L 11.90124320983887 2.065639495849609 C 12.09118461608887 1.978419303894043 12.30973243713379 1.978419303894043 12.49967384338379 2.065639495849609 L 21.69902420043945 6.311419486999512 L 12.20045375823975 10.69563961029053 Z" stroke="none" fill="#1d3c93"/>
      </g>
      <g id="Path_3" data-name="Path 3" transform="translate(-2 -4.104)" fill="none">
        <path d="M11.464,13.733,2,9.365V19.1a.717.717,0,0,0,.415.649l9.049,4.177Z" stroke="none"/>
        <path d="M 3.500002861022949 11.70921897888184 L 3.500002861022949 18.60165023803711 L 9.964282989501953 21.58517074584961 L 9.964282989501953 14.69259643554688 L 3.500002861022949 11.70921897888184 M 2.000002861022949 9.364900588989258 L 11.46428298950195 13.73283004760742 L 11.46428298950195 23.92954063415527 L 2.415073394775391 19.75297164916992 C 2.162403106689453 19.63577079772949 2.000542640686035 19.38278198242188 2.000002861022949 19.1042594909668 L 2.000002861022949 9.364900588989258 Z" stroke="none" fill="#1d3c93"/>
      </g>
      <g id="Path_4" data-name="Path 4" transform="translate(-6.214 -4.104)" fill="none">
        <path d="M16.75,13.733v10.2L25.8,19.753a.74.74,0,0,0,.415-.649V9.365Z" stroke="none"/>
        <path d="M 24.71428298950195 11.70887565612793 L 18.25000381469727 14.69245147705078 L 18.25000381469727 21.58505630493164 L 24.71428298950195 18.60153388977051 L 24.71428298950195 11.70887565612793 M 26.21428298950195 9.364494323730469 L 26.21428298950195 19.10414505004883 C 26.2081127166748 19.38098526000977 26.04799270629883 19.63124465942383 25.79921340942383 19.75285530090332 L 16.75000381469727 23.92942428588867 L 16.75000381469727 13.73271560668945 L 26.21428298950195 9.364494323730469 Z" stroke="none" fill="#1d3c93"/>
      </g>
    </g>
  </g>
</svg>
