<svg xmlns="http://www.w3.org/2000/svg" width="20" height="20" viewBox="0 0 20 20">
  <g id="delete" transform="translate(-916 -448)">
    <rect id="Rectangle_546" data-name="Rectangle 546" width="20" height="20" transform="translate(916 448)" fill="none"/>
    <g id="Group_114" data-name="Group 114" transform="translate(-817 220.37)">
      <path id="Path_214" data-name="Path 214" d="M20.079,4.874H14.913V2.937A1.939,1.939,0,0,0,12.976,1H9.1A1.939,1.939,0,0,0,7.165,2.937V4.874H2.646a.646.646,0,1,0,0,1.291h1.32l.562,12.356A1.934,1.934,0,0,0,6.462,20.37h9.154a1.934,1.934,0,0,0,1.935-1.849l.562-12.356h1.966a.646.646,0,1,0,0-1.291ZM8.457,2.937A.647.647,0,0,1,9.1,2.291h3.874a.647.647,0,0,1,.646.646V4.874H8.457Zm7.8,15.525a.645.645,0,0,1-.645.617H6.462a.645.645,0,0,1-.645-.616l-.559-12.3H16.82Z" transform="translate(1732 226.63)" fill="#3163f0"/>
      <path id="Path_215" data-name="Path 215" d="M12.646,14a.646.646,0,0,0-.646.646v5.811a.646.646,0,1,0,1.291,0V14.646A.646.646,0,0,0,12.646,14Z" transform="translate(1728.457 222.023)" fill="#3163f0"/>
      <path id="Path_216" data-name="Path 216" d="M18.646,14a.646.646,0,0,0-.646.646v5.811a.646.646,0,1,0,1.291,0V14.646A.646.646,0,0,0,18.646,14Z" transform="translate(1726.331 222.023)" fill="#3163f0"/>
    </g>
  </g>
</svg>
