<svg xmlns="http://www.w3.org/2000/svg" width="23" height="23" viewBox="0 0 23 23">
  <g id="Export" transform="translate(-1132 -119)">
    <rect id="Rectangle_542" data-name="Rectangle 542" width="23" height="23" transform="translate(1132 119)" fill="none"/>
    <g id="Calque_2" data-name="Calque 2" transform="translate(1104.88 96.037)">
      <path id="Path_336" data-name="Path 336" d="M33.331,32.767l4.4-4.4V39.3a.707.707,0,0,0,1.413,0V28.364l4.4,4.4a.707.707,0,1,0,1-1l-5.608-5.611-.11-.088-.039-.028L38.723,26a.413.413,0,0,0-.071-.021l-.074-.007a.707.707,0,0,0-.276,0l-.06.018a.413.413,0,0,0-.071.021l-.071.035-.053.028-.11.088-5.608,5.6a.707.707,0,1,0,1,1Z" transform="translate(-0.003)" fill="#3163f0"/>
      <path id="Path_337" data-name="Path 337" d="M44.05,70.07H32.827a.707.707,0,0,0,0,1.413H44.05a.707.707,0,0,0,0-1.413Z" transform="translate(0 -28.522)" fill="#3163f0"/>
    </g>
  </g>
</svg>
