<svg xmlns="http://www.w3.org/2000/svg" width="16" height="16" viewBox="0 0 16 16">
  <g id="Favicon_" data-name="Favicon " transform="translate(-22 -170.095)">
    <rect id="Rectangle_545" data-name="Rectangle 545" width="16" height="16" transform="translate(22 170.095)" fill="none"/>
    <g id="Group_764" data-name="Group 764" transform="translate(23.341 171.341)">
      <path id="Path_2" data-name="Path 2" d="M1.08.049,3.607.025,6.314,0a1.046,1.046,0,0,1,1.06,1.06,1.1,1.1,0,0,1-1.08,1.08l-2.6.024L1.06,2.189A1.046,1.046,0,0,1,0,1.129,1.1,1.1,0,0,1,1.08.049Z" transform="matrix(0.719, 0.695, -0.695, 0.719, 1.521, 0)" fill="#102c78"/>
      <path id="Path_3" data-name="Path 3" d="M1.08.049,6.314,0a1.046,1.046,0,0,1,1.06,1.06,1.1,1.1,0,0,1-1.08,1.08L1.06,2.188A1.046,1.046,0,0,1,0,1.129,1.1,1.1,0,0,1,1.08.049Z" transform="matrix(0.719, 0.695, -0.695, 0.719, 8.456, 6.652)" fill="#102c78"/>
      <path id="Path_4" data-name="Path 4" d="M1.06,0,6.291.049a1.1,1.1,0,0,1,1.08,1.08,1.046,1.046,0,0,1-1.06,1.06L1.08,2.14A1.1,1.1,0,0,1,0,1.06,1.046,1.046,0,0,1,1.06,0Z" transform="translate(13.695 1.548) rotate(135)" fill="#416be0"/>
      <path id="Path_5" data-name="Path 5" d="M1.06,0,6.291.049a1.1,1.1,0,0,1,1.08,1.08,1.046,1.046,0,0,1-1.06,1.06L1.08,2.14A1.1,1.1,0,0,1,0,1.06,1.046,1.046,0,0,1,1.06,0Z" transform="translate(6.825 8.2) rotate(135)" fill="#416be0"/>
    </g>
  </g>
</svg>
