<svg xmlns="http://www.w3.org/2000/svg" width="24" height="23.999" viewBox="0 0 24 23.999">
  <g id="Grid" transform="translate(0.032)">
    <path id="Path_1" data-name="Path 1" d="M2.814,5.673H.686A.6.6,0,0,1,0,5V.7C0,.218.227,0,.715,0H4.97c.491,0,.7.216.7.7V4.958c0,.516-.2.709-.729.712Q3.876,5.675,2.814,5.673Z" transform="translate(-0.023)" fill="#8ca6f0"/>
    <path id="Path_2" data-name="Path 2" d="M42.814,5.673H40.686c-.465,0-.681-.213-.681-.672Q40,2.837,40,.7c0-.482.224-.7.715-.7H44.97c.491,0,.7.216.7.7V4.958c0,.516-.2.709-.729.712Q43.876,5.675,42.814,5.673Z" transform="translate(-30.865)" fill="#8ca6f0"/>
    <path id="Path_3" data-name="Path 3" d="M82.814,5.673H80.686c-.465,0-.681-.213-.681-.672Q80,2.837,80,.7c0-.482.227-.7.715-.7H84.97c.491,0,.7.216.7.7V4.958c0,.516-.2.709-.729.712Q83.876,5.675,82.814,5.673Z" transform="translate(-61.705)" fill="#8ca6f0"/>
    <path id="Path_4" data-name="Path 4" d="M2.842,39.984H4.969a.591.591,0,0,1,.681.675q0,2.161,0,4.346a.567.567,0,0,1-.664.652H.646A.567.567,0,0,1-.02,45q0-2.184,0-4.388a.567.567,0,0,1,.647-.633Z" transform="translate(-0.002 -30.825)" fill="#8ca6f0"/>
    <path id="Path_5" data-name="Path 5" d="M45.673,42.879v2.127c0,.468-.207.675-.672.678l-4.3,0c-.485,0-.7-.216-.7-.709V40.723c0-.488.216-.7.7-.7h4.255c.513,0,.709.21.712.732C45.673,41.461,45.673,42.17,45.673,42.879Z" transform="translate(-30.865 -30.855)" fill="#8ca6f0"/>
    <path id="Path_6" data-name="Path 6" d="M85.673,42.872V45c0,.468-.207.675-.672.678l-4.3,0c-.485,0-.7-.218-.7-.712V40.713c0-.488.216-.7.7-.7h4.255c.511,0,.709.21.712.735C85.673,41.454,85.673,42.163,85.673,42.872Z" transform="translate(-61.705 -30.848)" fill="#8ca6f0"/>
    <path id="Path_7" data-name="Path 7" d="M2.786,85.657H.658a.593.593,0,0,1-.681-.681q0-2.156,0-4.3a.6.6,0,0,1,.675-.692H5a.582.582,0,0,1,.655.664q0,2.173,0,4.343c0,.46-.216.658-.689.661C4.232,85.657,3.509,85.657,2.786,85.657Z" transform="translate(0 -61.665)" fill="#8ca6f0"/>
    <path id="Path_8" data-name="Path 8" d="M45.651,82.82v2.127c0,.5-.2.7-.689.706h-4.3a.59.59,0,0,1-.686-.678q0-2.156,0-4.3a.6.6,0,0,1,.675-.692H45a.584.584,0,0,1,.655.664Z" transform="translate(-30.842 -61.665)" fill="#8ca6f0"/>
    <path id="Path_9" data-name="Path 9" d="M82.868,80H84.95c.516,0,.718.207.721.726v4.21c0,.542-.2.729-.755.732H80.752c-.547,0-.746-.2-.746-.743Q80,82.837,80,80.76c0-.567.2-.755.78-.757h2.082Z" transform="translate(-61.705 -61.682)" fill="#8ca6f0"/>
  </g>
</svg>
