<svg xmlns="http://www.w3.org/2000/svg" width="115.27" height="16.894" viewBox="0 0 115.27 16.894">
  <g id="Group_12" data-name="Group 12" transform="translate(-51.959 -1025)">
    <path id="Path_806" data-name="Path 806" d="M.959,0V-8.727H4.07a3.45,3.45,0,0,1,1.688.371,2.412,2.412,0,0,1,1,1.012A3.088,3.088,0,0,1,7.091-5.9a3.081,3.081,0,0,1-.335,1.447A2.436,2.436,0,0,1,5.751-3.441a3.437,3.437,0,0,1-1.685.373H1.926V-4.185h2.02A2.131,2.131,0,0,0,4.99-4.408a1.379,1.379,0,0,0,.588-.612A2,2,0,0,0,5.766-5.9a1.974,1.974,0,0,0-.187-.878,1.347,1.347,0,0,0-.59-.6A2.228,2.228,0,0,0,3.929-7.6H2.276V0ZM11.2.132A3.005,3.005,0,0,1,9.6-.29,2.845,2.845,0,0,1,8.531-1.47a3.917,3.917,0,0,1-.379-1.773,3.954,3.954,0,0,1,.379-1.781A2.839,2.839,0,0,1,9.6-6.209,3.005,3.005,0,0,1,11.2-6.631a3.005,3.005,0,0,1,1.607.422,2.839,2.839,0,0,1,1.065,1.185,3.954,3.954,0,0,1,.379,1.781,3.917,3.917,0,0,1-.379,1.773A2.845,2.845,0,0,1,12.81-.29,3.005,3.005,0,0,1,11.2.132Zm0-1.07a1.527,1.527,0,0,0,.989-.315,1.862,1.862,0,0,0,.582-.839,3.373,3.373,0,0,0,.19-1.155,3.378,3.378,0,0,0-.19-1.153,1.89,1.89,0,0,0-.582-.846,1.514,1.514,0,0,0-.989-.32,1.529,1.529,0,0,0-1,.32,1.883,1.883,0,0,0-.584.846,3.378,3.378,0,0,0-.19,1.153,3.373,3.373,0,0,0,.19,1.155,1.855,1.855,0,0,0,.584.839A1.543,1.543,0,0,0,11.207-.937ZM16.892,0,14.966-6.545h1.317l1.283,4.807h.064l1.287-4.807h1.317L21.511-1.76h.064l1.274-4.786h1.317L22.244,0h-1.3l-1.33-4.726h-.1L18.188,0Zm11.1.132a3.19,3.19,0,0,1-1.664-.415,2.769,2.769,0,0,1-1.074-1.172,3.932,3.932,0,0,1-.377-1.775A3.97,3.97,0,0,1,25.255-5a2.892,2.892,0,0,1,1.057-1.2,2.911,2.911,0,0,1,1.592-.43,3.207,3.207,0,0,1,1.074.183,2.6,2.6,0,0,1,.933.575,2.705,2.705,0,0,1,.652,1.016A4.255,4.255,0,0,1,30.8-3.341v.452H25.6v-.955h3.955a1.893,1.893,0,0,0-.2-.893,1.555,1.555,0,0,0-.573-.616,1.619,1.619,0,0,0-.863-.226,1.663,1.663,0,0,0-.935.262,1.771,1.771,0,0,0-.614.682,1.965,1.965,0,0,0-.215.91v.746a2.457,2.457,0,0,0,.232,1.116,1.637,1.637,0,0,0,.65.7,1.919,1.919,0,0,0,.976.241,1.989,1.989,0,0,0,.661-.1,1.4,1.4,0,0,0,.516-.313,1.37,1.37,0,0,0,.332-.516l1.206.217a2.179,2.179,0,0,1-.518.931,2.508,2.508,0,0,1-.933.618A3.479,3.479,0,0,1,27.993.132ZM32.22,0V-6.545h1.232v1.04h.068a1.589,1.589,0,0,1,.633-.833,1.8,1.8,0,0,1,1.029-.3q.119,0,.283.009t.258.021v1.219a2.476,2.476,0,0,0-.273-.049,2.8,2.8,0,0,0-.392-.028,1.665,1.665,0,0,0-.8.19,1.441,1.441,0,0,0-.556.524,1.429,1.429,0,0,0-.2.761V0Zm7.193.132a3.19,3.19,0,0,1-1.664-.415,2.769,2.769,0,0,1-1.074-1.172A3.932,3.932,0,0,1,36.3-3.23,3.969,3.969,0,0,1,36.675-5a2.892,2.892,0,0,1,1.057-1.2,2.911,2.911,0,0,1,1.592-.43,3.207,3.207,0,0,1,1.074.183,2.6,2.6,0,0,1,.933.575,2.705,2.705,0,0,1,.652,1.016,4.255,4.255,0,0,1,.239,1.515v.452h-5.2v-.955h3.955a1.893,1.893,0,0,0-.2-.893,1.555,1.555,0,0,0-.573-.616,1.619,1.619,0,0,0-.863-.226,1.663,1.663,0,0,0-.935.262,1.771,1.771,0,0,0-.614.682,1.965,1.965,0,0,0-.215.91v.746A2.456,2.456,0,0,0,37.8-1.862a1.637,1.637,0,0,0,.65.7,1.919,1.919,0,0,0,.976.241,1.989,1.989,0,0,0,.661-.1,1.4,1.4,0,0,0,.516-.313,1.37,1.37,0,0,0,.332-.516l1.206.217a2.179,2.179,0,0,1-.518.931,2.508,2.508,0,0,1-.933.618A3.479,3.479,0,0,1,39.413.132Zm6.678,0a2.517,2.517,0,0,1-1.413-.407,2.722,2.722,0,0,1-.972-1.163,4.285,4.285,0,0,1-.352-1.817,4.227,4.227,0,0,1,.356-1.815,2.7,2.7,0,0,1,.978-1.155,2.549,2.549,0,0,1,1.411-.4,2.057,2.057,0,0,1,.982.2,1.8,1.8,0,0,1,.58.471,4.082,4.082,0,0,1,.322.473h.077V-8.727h1.274V0H48.089V-1.018h-.107a3.457,3.457,0,0,1-.33.477,1.873,1.873,0,0,1-.59.469A2.057,2.057,0,0,1,46.091.128Zm.281-1.087a1.487,1.487,0,0,0,.931-.292,1.8,1.8,0,0,0,.58-.812,3.388,3.388,0,0,0,.2-1.21,3.324,3.324,0,0,0-.2-1.193,1.753,1.753,0,0,0-.575-.8,1.514,1.514,0,0,0-.937-.286,1.515,1.515,0,0,0-.959.3,1.809,1.809,0,0,0-.577.814,3.287,3.287,0,0,0-.194,1.163,3.351,3.351,0,0,0,.2,1.18,1.856,1.856,0,0,0,.582.829A1.489,1.489,0,0,0,46.372-.959ZM54.43,0V-8.727H55.7v3.243h.077a3.561,3.561,0,0,1,.32-.473,1.831,1.831,0,0,1,.58-.471,2.044,2.044,0,0,1,.98-.2,2.556,2.556,0,0,1,1.415.4,2.7,2.7,0,0,1,.978,1.155,4.227,4.227,0,0,1,.356,1.815,4.263,4.263,0,0,1-.354,1.817,2.742,2.742,0,0,1-.972,1.163,2.506,2.506,0,0,1-1.411.407,2.07,2.07,0,0,1-.974-.2,1.841,1.841,0,0,1-.59-.469,3.548,3.548,0,0,1-.328-.477h-.107V0Zm1.249-3.273a3.356,3.356,0,0,0,.2,1.21,1.82,1.82,0,0,0,.58.812,1.478,1.478,0,0,0,.929.292,1.486,1.486,0,0,0,.955-.3,1.878,1.878,0,0,0,.582-.829,3.318,3.318,0,0,0,.2-1.18,3.287,3.287,0,0,0-.194-1.163,1.8,1.8,0,0,0-.58-.814,1.524,1.524,0,0,0-.961-.3,1.516,1.516,0,0,0-.935.286,1.746,1.746,0,0,0-.577.8A3.324,3.324,0,0,0,55.679-3.273Zm6.733,5.71a2.781,2.781,0,0,1-.52-.045,1.7,1.7,0,0,1-.349-.1l.307-1.044a1.5,1.5,0,0,0,.88.023,1.162,1.162,0,0,0,.6-.756l.158-.435L61.091-6.545h1.364l1.658,5.08h.068l1.658-5.08,1.376.013L64.509.874a2.909,2.909,0,0,1-.477.857,1.889,1.889,0,0,1-.69.528A2.258,2.258,0,0,1,62.412,2.438Z" transform="translate(51 1038)" fill="#d9e3ff"/>
    <g id="XDC-Logo" transform="translate(97 1002)">
      <g id="XDC-Icon" transform="translate(26.5 23)">
        <g id="Combined_Shape" data-name="Combined Shape" transform="translate(0 0)" fill="none">
          <path d="M8.447,16.894a8.513,8.513,0,0,1-5.685-2.167A8.412,8.412,0,0,1,0,9.4l1.909-.948L0,7.5A8.412,8.412,0,0,1,2.762,2.167a8.54,8.54,0,0,1,11.37,0A8.412,8.412,0,0,1,16.894,7.5l-1.909.948,1.909.948a8.412,8.412,0,0,1-2.762,5.331A8.513,8.513,0,0,1,8.447,16.894Z" stroke="none"/>
          <path d="M 8.446930885314941 15.89406108856201 C 10.30451107025146 15.89406108856201 12.08674144744873 15.21483135223389 13.46534061431885 13.98149108886719 C 14.65899276733398 12.91360187530518 15.46964454650879 11.50638389587402 15.7913293838501 9.964128494262695 L 12.73821067810059 8.447211265563965 L 15.79135894775391 6.930017471313477 C 15.46967220306396 5.387790679931641 14.65900135040283 3.980529308319092 13.46534061431885 2.912631034851074 C 12.08672142028809 1.679251074790955 10.30448055267334 1.000001072883606 8.446930885314941 1.000001072883606 C 6.589470863342285 1.000001072883606 4.807291030883789 1.679251074790955 3.428700923919678 2.912621021270752 C 2.23504900932312 3.980536699295044 1.424387812614441 5.387797355651855 1.102702975273132 6.930017471313477 L 4.155930995941162 8.447251319885254 L 1.102726459503174 9.964071273803711 C 1.424411416053772 11.50633716583252 2.235059022903442 12.91355419158936 3.4287109375 13.98146057128906 C 4.807271003723145 15.21482086181641 6.589450836181641 15.89406108856201 8.446930885314941 15.89406108856201 M 8.446930885314941 16.8940601348877 C 6.343091011047363 16.8940601348877 4.324120998382568 16.12436103820801 2.761940956115723 14.726731300354 C 1.211451053619385 13.33957099914551 0.2305810153484344 11.4461612701416 1.102111855288967e-05 9.395291328430176 L 1.908560991287231 8.447131156921387 L 1.021118123389897e-06 7.498711109161377 C 0.2305810153484344 5.447771072387695 1.211501002311707 3.554471015930176 2.761940956115723 2.167351007461548 C 4.324141025543213 0.7697110176086426 6.343111038208008 1.021118123389897e-06 8.446930885314941 1.021118123389897e-06 C 10.55084133148193 1.021118123389897e-06 12.5698709487915 0.7697110176086426 14.13210105895996 2.16736102104187 C 15.6826114654541 3.554511070251465 16.66349029541016 5.447891235351562 16.8940601348877 7.498711109161377 L 14.98550128936768 8.447131156921387 L 16.89404106140137 9.395371437072754 C 16.66346168518066 11.44637107849121 15.68253135681152 13.33969116210938 14.13209056854248 14.72677135467529 C 12.56989097595215 16.12437057495117 10.55086135864258 16.8940601348877 8.446930885314941 16.8940601348877 Z" stroke="none" fill="#fff"/>
        </g>
        <path id="X" d="M1.314,6.467,2.718,4.1l1.4,2.372H5.435L3.424,3.207,5.39,0H4.085L2.718,2.336,1.35,0H.045L2.016,3.207,0,6.467Z" transform="translate(5.715 5.229)" fill="#fff"/>
      </g>
      <path id="XDC" d="M1.515,0H.226L3.051-4.044.4-7.89H1.74L3.754-4.872l2-3.019H7.025L4.377-4.044,7.154,0H5.828L3.7-3.244ZM11.2-.913a2.954,2.954,0,0,0,.892-.113,1.961,1.961,0,0,0,1.021-.806,3.3,3.3,0,0,0,.457-1.225,4.671,4.671,0,0,0,.081-.827,3.852,3.852,0,0,0-.583-2.277,2.153,2.153,0,0,0-1.877-.811H9.3V-.913ZM8.223-7.89h3.2a3.012,3.012,0,0,1,2.524,1.155,4.257,4.257,0,0,1,.8,2.669,5.319,5.319,0,0,1-.473,2.272A2.916,2.916,0,0,1,11.408,0H8.223ZM19.443-8.1a3.233,3.233,0,0,1,2.326.79,2.788,2.788,0,0,1,.918,1.794H21.646a2.169,2.169,0,0,0-.706-1.208,2.239,2.239,0,0,0-1.485-.446,2.381,2.381,0,0,0-1.883.819,3.734,3.734,0,0,0-.717,2.511A3.647,3.647,0,0,0,17.5-1.6a2.261,2.261,0,0,0,1.931.862,2.04,2.04,0,0,0,1.8-.908A3.452,3.452,0,0,0,21.721-2.9h1.042a3.56,3.56,0,0,1-.924,2.089A3.287,3.287,0,0,1,19.3.2a3.346,3.346,0,0,1-2.31-.833,4.338,4.338,0,0,1-1.23-3.4,4.343,4.343,0,0,1,.924-2.863A3.374,3.374,0,0,1,19.443-8.1Z" transform="translate(47.467 35.873)" fill="#fff"/>
    </g>
  </g>
</svg>
