<svg xmlns="http://www.w3.org/2000/svg" width="28" height="28" viewBox="0 0 28 28">
  <g id="hamburger" transform="translate(146 -3819)">
    <rect id="Rectangle_565" data-name="Rectangle 565" width="28" height="28" transform="translate(-146 3819)" fill="none"/>
    <g id="Group_1019" data-name="Group 1019" transform="translate(-385.843 3804)">
      <path id="Path_308" data-name="Path 308" d="M41.75,24.876H18.179A1.328,1.328,0,0,1,17,23.438,1.328,1.328,0,0,1,18.179,22H41.75a1.328,1.328,0,0,1,1.179,1.438A1.328,1.328,0,0,1,41.75,24.876Z" transform="translate(223.843 -4)" fill="#fff"/>
      <path id="Path_309" data-name="Path 309" d="M41.75,49.876H18.179a1.467,1.467,0,0,1,0-2.876H41.75a1.467,1.467,0,0,1,0,2.876Z" transform="translate(223.843 -19.438)" fill="#fff"/>
      <path id="Path_310" data-name="Path 310" d="M41.75,74.876H18.179a1.467,1.467,0,0,1,0-2.876H41.75a1.467,1.467,0,0,1,0,2.876Z" transform="translate(223.843 -34.876)" fill="#fff"/>
    </g>
  </g>
</svg>
