<svg xmlns="http://www.w3.org/2000/svg" width="22" height="22" viewBox="0 0 22 22">
  <g id="hide" transform="translate(-927 -455)">
    <rect id="Rectangle_477" data-name="Rectangle 477" width="22" height="22" transform="translate(927 455)" fill="none"/>
    <g id="Group_169" data-name="Group 169" transform="translate(928 456)">
      <path id="Path_245" data-name="Path 245" d="M0,0H20V20H0Z" fill="none"/>
      <path id="Path_246" data-name="Path 246" d="M14.795,15.921A8.985,8.985,0,0,1,1.181,10,8.9,8.9,0,0,1,3.9,5.078L1.353,2.541,2.506,1.393,18.645,17.46l-1.153,1.147-2.7-2.686ZM5.056,6.227A7.268,7.268,0,0,0,2.846,10a7.348,7.348,0,0,0,10.761,4.737l-1.653-1.646A3.681,3.681,0,0,1,7.4,12.584a3.639,3.639,0,0,1-.51-4.528Zm5.689,5.662L8.1,9.258a2.022,2.022,0,0,0,.456,2.176,2.045,2.045,0,0,0,2.186.454Zm6.434,1.837-1.166-1.16A7.234,7.234,0,0,0,17.154,10,7.343,7.343,0,0,0,8,4.594L6.718,3.314A8.988,8.988,0,0,1,18.819,10a8.863,8.863,0,0,1-1.64,3.726Zm-7.4-7.371a3.66,3.66,0,0,1,3.887,3.87L9.773,6.355Z" fill="#1d3c93"/>
    </g>
  </g>
</svg>
