<svg xmlns="http://www.w3.org/2000/svg" width="24" height="24" viewBox="0 0 24 24">
  <g id="hide" transform="translate(-971 -138)">
    <rect id="Rectangle_461" data-name="Rectangle 461" width="24" height="24" transform="translate(971 138)" fill="none"/>
    <g id="eye-off" transform="translate(973 140)">
      <path id="Path_331" data-name="Path 331" d="M14.968,15.494a8.3,8.3,0,0,1-4.9,1.7C4.3,17.193,1,10.6,1,10.6A15.213,15.213,0,0,1,5.172,5.7M8.339,4.2A7.52,7.52,0,0,1,10.07,4c5.772,0,9.07,6.6,9.07,6.6a15.255,15.255,0,0,1-1.781,2.63m-5.541-.882a2.474,2.474,0,1,1-3.5-3.5" transform="translate(0 -0.526)" fill="none" stroke="#b5b5b5" stroke-linecap="round" stroke-linejoin="round" stroke-width="2"/>
      <line id="Line_50" data-name="Line 50" x2="18" y2="18" transform="translate(1 1)" fill="none" stroke="#b5b5b5" stroke-linecap="round" stroke-linejoin="round" stroke-width="2"/>
    </g>
  </g>
</svg>
