<svg xmlns="http://www.w3.org/2000/svg" width="108" height="33.838" viewBox="0 0 108 33.838">
  <g id="Logo" transform="translate(0.003 0.001)">
    <path id="Path_2" data-name="Path 2" d="M2.417.11,8.067.057,14.122,0a2.339,2.339,0,0,1,2.372,2.37,2.448,2.448,0,0,1-2.417,2.415L8.262,4.84,2.372,4.9A2.339,2.339,0,0,1,0,2.525,2.448,2.448,0,0,1,2.417.11Z" transform="matrix(0.719, 0.695, -0.695, 0.719, 3.399, -0.001)" fill="#fff"/>
    <path id="Path_3" data-name="Path 3" d="M2.417.11,14.122,0a2.339,2.339,0,0,1,2.372,2.37,2.448,2.448,0,0,1-2.417,2.415L2.372,4.895A2.339,2.339,0,0,1,0,2.525,2.448,2.448,0,0,1,2.417.11Z" transform="matrix(0.719, 0.695, -0.695, 0.719, 18.912, 14.878)" fill="#fff"/>
    <path id="Path_4" data-name="Path 4" d="M2.371,0l11.7.109a2.448,2.448,0,0,1,2.416,2.416A2.339,2.339,0,0,1,14.117,4.9l-11.7-.109A2.448,2.448,0,0,1,0,2.371,2.339,2.339,0,0,1,2.371,0Z" transform="translate(30.628 3.462) rotate(135)" fill="#fff"/>
    <path id="Path_5" data-name="Path 5" d="M2.371,0l11.7.109a2.448,2.448,0,0,1,2.416,2.416A2.339,2.339,0,0,1,14.117,4.9l-11.7-.109A2.448,2.448,0,0,1,0,2.371,2.339,2.339,0,0,1,2.371,0Z" transform="translate(15.264 18.341) rotate(135)" fill="#fff"/>
    <path id="Path_1" data-name="Path 1" d="M23.272-45.784h3.157v-7.192c0-3.386-2.119-5.244-5.118-5.244a4.966,4.966,0,0,0-4.284,2.346,4.8,4.8,0,0,0-4.4-2.346,4.583,4.583,0,0,0-3.675,1.66v-1.482H5.8v12.26H8.957v-6.774a2.642,2.642,0,0,1,2.82-2.965,2.63,2.63,0,0,1,2.774,2.965v6.772H17.7v-6.772a2.636,2.636,0,0,1,2.8-2.965,2.63,2.63,0,0,1,2.774,2.965Zm5.343-6.174c0,3.828,2.525,6.373,5.682,6.373a4.953,4.953,0,0,0,4.149-1.995v1.793h3.179V-58.044h-3.18V-56.3a4.971,4.971,0,0,0-4.127-1.947c-3.178,0-5.7,2.456-5.7,6.285Zm9.831.044a3.328,3.328,0,0,1-3.314,3.607,3.376,3.376,0,0,1-3.292-3.651,3.3,3.3,0,0,1,3.292-3.563,3.328,3.328,0,0,1,3.314,3.607Zm9.424.022c0-2.368,1.127-3.076,3-3.076H51.7v-3.253a4.35,4.35,0,0,0-3.833,2.08v-1.9H44.714v12.26H47.87Zm6.448,2.3c0,2.811,1.6,3.806,3.99,3.806h1.984V-48.4H58.828c-.992,0-1.33-.354-1.33-1.173V-55.5h2.8v-2.545H57.5v-3.032H54.319v3.032H52.831V-55.5h1.488Zm8.255,3.806H65.73V-62.16H62.571Zm11.589-3.7-3.224-8.564H67.4L72.4-46.091,69.7-39.983h3.36l7.734-18.058H77.43Z" transform="translate(27.208 73.82)" fill="#fff"/>
  </g>
</svg>
