<svg xmlns="http://www.w3.org/2000/svg" width="94" height="21" viewBox="0 0 94 21">
  <g id="network" transform="translate(-810 -682)">
    <rect id="Rectangle_252" data-name="Rectangle 252" width="87" height="18" rx="4" transform="translate(817 684)" fill="#c5cfee"/>
    <circle id="Ellipse_2" data-name="Ellipse 2" cx="10.5" cy="10.5" r="10.5" transform="translate(810 682)" fill="#2149b9"/>
    <g id="Group_184" data-name="Group 184" transform="translate(797.399 673.864)">
      <g id="Combined_Shape" data-name="Combined Shape" transform="translate(17.5 13)" fill="none">
        <path d="M5.6,11.272a5.637,5.637,0,0,1-5.6-5l1.265-.633L0,5A5.637,5.637,0,0,1,11.2,5l-1.266.633,1.265.633a5.637,5.637,0,0,1-5.6,5Z" stroke="none"/>
        <path d="M 5.60088062286377 10.27212142944336 C 6.748420715332031 10.27212142944336 7.849560737609863 9.849761962890625 8.701450347900391 9.082841873168945 C 9.376492500305176 8.475146293640137 9.853559494018555 7.69090461730957 10.08260440826416 6.827237606048584 L 7.700300693511963 5.636191844940186 L 10.08262825012207 4.444944381713867 C 9.853588104248047 3.581304311752319 9.376507759094238 2.797030925750732 8.701450347900391 2.189311742782593 C 7.849540710449219 1.422371625900269 6.748400688171387 1.000001668930054 5.60088062286377 1.000001668930054 C 4.453410625457764 1.000001668930054 3.352320671081543 1.422371625900269 2.500430822372437 2.189301729202271 C 1.82537317276001 2.79703688621521 1.348294854164124 3.58130931854248 1.119254350662231 4.444944858551025 L 3.501650810241699 5.636231899261475 L 1.11927855014801 6.827218532562256 C 1.348318696022034 7.690884590148926 1.82538115978241 8.475113868713379 2.500430822372437 9.082841873168945 C 3.352300643920898 9.849761962890625 4.453400611877441 10.27212142944336 5.60088062286377 10.27212142944336 M 5.60088062286377 11.27212142944336 C 4.205890655517578 11.27212142944336 2.867180585861206 10.7585620880127 1.831350684165955 9.826031684875488 C 0.803270697593689 8.900481224060059 0.1528906971216202 7.637151718139648 1.070434609573567e-05 6.26876163482666 L 1.265500664710999 5.63612174987793 L 7.043457230793138e-07 5.003321647644043 C 0.1528906971216202 3.634881734848022 0.8033106923103333 2.371631622314453 1.831350684165955 1.446111679077148 C 2.867190599441528 0.5135716795921326 4.2059006690979 1.668395952947321e-06 5.60088062286377 1.668395952947321e-06 C 6.99591064453125 1.668395952947321e-06 8.334660530090332 0.5135716795921326 9.37052059173584 1.446111679077148 C 10.39861106872559 2.371651649475098 11.04900074005127 3.634961605072021 11.20188045501709 5.003321647644043 L 9.936380386352539 5.63612174987793 L 11.20187091827393 6.268811702728271 C 11.04897117614746 7.637291431427002 10.39856052398682 8.900561332702637 9.370511054992676 9.826051712036133 C 8.334671020507812 10.75857162475586 6.995920658111572 11.27212142944336 5.60088062286377 11.27212142944336 Z" stroke="none" fill="#fff"/>
      </g>
      <path id="X" d="M.871,4.315,1.8,2.732,2.73,4.315H3.6L2.27,2.14,3.574,0H2.709L1.8,1.559.9,0H.03L1.337,2.14,0,4.315Z" transform="translate(21.29 16.489)" fill="#fff"/>
    </g>
  </g>
</svg>
