<svg xmlns="http://www.w3.org/2000/svg" width="22" height="22" viewBox="0 0 22 22">
  <path id="Subtraction_2" data-name="Subtraction 2" d="M-5869-11993a10.926,10.926,0,0,1-7.778-3.221A10.932,10.932,0,0,1-5880-12004a10.929,10.929,0,0,1,3.222-7.778A10.93,10.93,0,0,1-5869-12015a10.93,10.93,0,0,1,7.778,3.222A10.929,10.929,0,0,1-5858-12004a10.932,10.932,0,0,1-3.222,7.779A10.926,10.926,0,0,1-5869-11993Zm-.015-5.31a1.334,1.334,0,0,0-1.333,1.333,1.334,1.334,0,0,0,1.333,1.332,1.334,1.334,0,0,0,1.333-1.332A1.334,1.334,0,0,0-5869.015-11998.311Zm-.108-12.644a3.062,3.062,0,0,1,2.186.907,3.064,3.064,0,0,1,.908,2.187,3.079,3.079,0,0,1-.76,2.035,3.1,3.1,0,0,1-1.918,1.034,1.633,1.633,0,0,0-1.01.543,1.643,1.643,0,0,0-.407,1.076v2.766a1,1,0,0,0,1,1,1,1,0,0,0,1-1v-2.461a5.118,5.118,0,0,0,2.834-1.643,5.1,5.1,0,0,0,1.257-3.351,5.05,5.05,0,0,0-1.493-3.6,5.048,5.048,0,0,0-3.6-1.492,5.073,5.073,0,0,0-2.97.953,5.1,5.1,0,0,0-1.854,2.509,1,1,0,0,0,.627,1.266.989.989,0,0,0,.32.053.994.994,0,0,0,.943-.677,3.091,3.091,0,0,1,1.131-1.525A3.072,3.072,0,0,1-5869.124-12010.954Z" transform="translate(5880 12015.001)" fill="#8ca6f0"/>
</svg>
