<svg xmlns="http://www.w3.org/2000/svg" width="34" height="34" viewBox="0 0 34 34">
  <g id="refresh" transform="translate(-826 -293)">
    <rect id="Rectangle_25" data-name="Rectangle 25" width="34" height="34" rx="4" transform="translate(826 293)" fill="#fff"/>
    <g id="Refresh-2" data-name="Refresh" transform="translate(805.029 273.49)">
      <path id="Path_23" data-name="Path 23" d="M50.255,33.77A8.612,8.612,0,0,0,39.705,27.7c-.17.047-.34.1-.506.158l-.423-1.04a.49.49,0,0,0-.874-.067l-1.681,2.8a.49.49,0,0,0,.3.716l3.163.834a.494.494,0,0,0,.581-.66L39.8,29.317l.32-.1A7.023,7.023,0,0,1,48.4,38.776a.783.783,0,1,0,1.435.625A8.533,8.533,0,0,0,50.255,33.77Z" transform="translate(-4.345)" fill="#3163f0"/>
      <path id="Path_24" data-name="Path 24" d="M43.012,50.321l-3.163-.83a.49.49,0,0,0-.585.66l.439,1.076c-.1.032-.206.067-.308.095a7.027,7.027,0,0,1-8.268-9.545.791.791,0,0,0-1.455-.621,8.6,8.6,0,0,0,10.15,11.693c.166-.044.328-.1.494-.15l.439,1.079a.49.49,0,0,0,.882.075l1.681-2.8a.494.494,0,0,0-.3-.735Z" transform="translate(0 -8.564)" fill="#3163f0"/>
    </g>
  </g>
</svg>
