<svg xmlns="http://www.w3.org/2000/svg" width="26" height="26" viewBox="0 0 26 26">
  <g id="slack" transform="translate(-988 -399)">
    <rect id="Rectangle_480" data-name="Rectangle 480" width="26" height="26" transform="translate(988 399)" fill="none"/>
    <path id="Icon_simple-slack" data-name="Icon simple-slack" d="M4.093,12.31a2.046,2.046,0,1,1-2.046-2.046H4.093Zm1.032,0a2.046,2.046,0,0,1,4.093,0v5.125a2.046,2.046,0,1,1-4.093,0ZM7.171,4.093A2.046,2.046,0,1,1,9.218,2.047V4.093Zm0,1.032a2.046,2.046,0,1,1,0,4.093H2.047a2.046,2.046,0,1,1,0-4.093Zm8.217,2.046a2.047,2.047,0,1,1,2.047,2.046H15.388V7.171Zm-1.029,0a2.047,2.047,0,0,1-4.094,0V2.047a2.047,2.047,0,1,1,4.094,0ZM12.31,15.388a2.047,2.047,0,1,1-2.046,2.047V15.388H12.31Zm0-1.029a2.047,2.047,0,0,1,0-4.094h5.125a2.047,2.047,0,1,1,0,4.094Z" transform="translate(991 402)" fill="#416be0"/>
  </g>
</svg>
