<svg xmlns="http://www.w3.org/2000/svg" xmlns:xlink="http://www.w3.org/1999/xlink" width="540" height="328" viewBox="0 0 540 328">
  <defs>
    <clipPath id="clip-path">
      <rect id="Rectangle_1129" data-name="Rectangle 1129" width="429.016" height="276.934" fill="none"/>
    </clipPath>
  </defs>
  <g id="Group_979" data-name="Group 979" transform="translate(-1125 -179)">
    <rect id="Rectangle_210" data-name="Rectangle 210" width="540" height="328" rx="6" transform="translate(1125 179)" fill="#fff"/>
    <g id="Group_978" data-name="Group 978" transform="translate(1180 205)">
      <g id="Group_977" data-name="Group 977" clip-path="url(#clip-path)">
        <path id="Path_901" data-name="Path 901" d="M169.77,108.1v61.163a13.53,13.53,0,0,0,6.766,11.718L229.5,211.564a13.533,13.533,0,0,0,13.532,0L296,180.982a13.53,13.53,0,0,0,6.766-11.718V108.1A13.53,13.53,0,0,0,296,96.383L243.036,65.8a13.533,13.533,0,0,0-13.532,0L176.536,96.383A13.53,13.53,0,0,0,169.77,108.1" fill="#fff"/>
        <path id="Path_902" data-name="Path 902" d="M169.77,108.1v61.163a13.53,13.53,0,0,0,6.766,11.718L229.5,211.564a13.533,13.533,0,0,0,13.532,0L296,180.982a13.53,13.53,0,0,0,6.766-11.718V108.1A13.53,13.53,0,0,0,296,96.383L243.036,65.8a13.533,13.533,0,0,0-13.532,0L176.536,96.383A13.53,13.53,0,0,0,169.77,108.1Z" fill="none" stroke="#091f5c" stroke-width="4"/>
        <path id="Path_903" data-name="Path 903" d="M251.616,165.829H219.923a8.653,8.653,0,0,1-8.653-8.654V116.483a8.653,8.653,0,0,1,8.653-8.654h31.693a8.654,8.654,0,0,1,8.654,8.654v40.692a8.654,8.654,0,0,1-8.654,8.654" fill="#fff"/>
        <path id="Rectangle_1128" data-name="Rectangle 1128" d="M8.654,0H40.347A8.653,8.653,0,0,1,49,8.653V49.346A8.654,8.654,0,0,1,40.346,58H8.654A8.654,8.654,0,0,1,0,49.346V8.654A8.654,8.654,0,0,1,8.654,0Z" transform="translate(211.27 107.829)" fill="none" stroke="#0089ff" stroke-linejoin="round" stroke-width="3"/>
        <line id="Line_82" data-name="Line 82" x2="12.5" transform="translate(219.27 121.829)" fill="#fff"/>
        <line id="Line_83" data-name="Line 83" x2="12.5" transform="translate(219.27 121.829)" fill="none" stroke="#0089ff" stroke-linecap="round" stroke-linejoin="round" stroke-width="3"/>
        <line id="Line_84" data-name="Line 84" x2="30.5" transform="translate(219.27 131.829)" fill="#fff"/>
        <line id="Line_85" data-name="Line 85" x2="30.5" transform="translate(219.27 131.829)" fill="none" stroke="#0089ff" stroke-linecap="round" stroke-linejoin="round" stroke-width="3"/>
        <line id="Line_86" data-name="Line 86" x2="30.5" transform="translate(219.27 141.829)" fill="#fff"/>
        <line id="Line_87" data-name="Line 87" x2="30.5" transform="translate(219.27 141.829)" fill="none" stroke="#0089ff" stroke-linecap="round" stroke-linejoin="round" stroke-width="3"/>
        <line id="Line_88" data-name="Line 88" x2="30.5" transform="translate(219.27 151.829)" fill="#fff"/>
        <line id="Line_89" data-name="Line 89" x2="30.5" transform="translate(219.27 151.829)" fill="none" stroke="#0089ff" stroke-linecap="round" stroke-linejoin="round" stroke-width="3"/>
        <path id="Path_904" data-name="Path 904" d="M176.535,96.382,138.759,28.606H59.9" fill="none" stroke="#091f5c" stroke-linecap="round" stroke-linejoin="round" stroke-width="4"/>
        <path id="Path_905" data-name="Path 905" d="M172.41,177.553l-37.776,67.776H55.77" fill="none" stroke="#091f5c" stroke-linecap="round" stroke-linejoin="round" stroke-width="4"/>
        <line id="Line_90" data-name="Line 90" x1="109" transform="translate(60.77 139.434)" fill="none" stroke="#091f5c" stroke-linecap="round" stroke-linejoin="round" stroke-width="4"/>
        <line id="Line_91" data-name="Line 91" x1="63.935" transform="translate(302.835 101.434)" fill="none" stroke="#091f5c" stroke-linecap="round" stroke-linejoin="round" stroke-width="4"/>
        <line id="Line_92" data-name="Line 92" x1="63.935" transform="translate(302.835 177.434)" fill="none" stroke="#091f5c" stroke-linecap="round" stroke-linejoin="round" stroke-width="4"/>
        <path id="Path_906" data-name="Path 906" d="M32.367,58.734A29.375,29.375,0,0,1,20.937,2.307,29.375,29.375,0,0,1,43.8,56.427a29.177,29.177,0,0,1-11.43,2.307" fill="#fff"/>
        <path id="Path_907" data-name="Path 907" d="M31.367,4A27.375,27.375,0,0,0,20.716,56.585a27.375,27.375,0,0,0,21.3-50.436A27.19,27.19,0,0,0,31.367,4m0-4A31.367,31.367,0,1,1,0,31.367,31.367,31.367,0,0,1,31.367,0" fill="#091f5c"/>
        <path id="Path_908" data-name="Path 908" d="M32.649,274.934a29.274,29.274,0,1,1,11.43-2.307,29.177,29.177,0,0,1-11.43,2.307" fill="#fff"/>
        <path id="Path_909" data-name="Path 909" d="M32.649,218.2A27.271,27.271,0,1,0,43.3,220.349,27.19,27.19,0,0,0,32.649,218.2m0-4A31.367,31.367,0,1,1,1.282,245.567,31.367,31.367,0,0,1,32.649,214.2" fill="#091f5c"/>
        <path id="Path_910" data-name="Path 910" d="M397.649,206.934a29.274,29.274,0,1,1,11.43-2.307,29.177,29.177,0,0,1-11.43,2.307" fill="#fff"/>
        <path id="Path_911" data-name="Path 911" d="M397.649,150.2a27.271,27.271,0,1,0,10.651,2.149,27.19,27.19,0,0,0-10.651-2.149m0-4a31.367,31.367,0,1,1-31.367,31.367A31.367,31.367,0,0,1,397.649,146.2" fill="#091f5c"/>
        <path id="Path_912" data-name="Path 912" d="M397.649,130.934a29.274,29.274,0,1,1,11.43-2.307,29.177,29.177,0,0,1-11.43,2.307" fill="#fff"/>
        <path id="Path_913" data-name="Path 913" d="M397.649,74.2A27.271,27.271,0,1,0,408.3,76.349,27.19,27.19,0,0,0,397.649,74.2m0-4a31.367,31.367,0,1,1-31.367,31.367A31.367,31.367,0,0,1,397.649,70.2" fill="#091f5c"/>
        <path id="Path_914" data-name="Path 914" d="M31.649,168.934a29.274,29.274,0,1,1,11.43-2.307,29.177,29.177,0,0,1-11.43,2.307" fill="#fff"/>
        <path id="Path_915" data-name="Path 915" d="M31.649,112.2A27.271,27.271,0,1,0,42.3,114.349,27.19,27.19,0,0,0,31.649,112.2m0-4A31.367,31.367,0,1,1,.282,139.567,31.367,31.367,0,0,1,31.649,108.2" fill="#091f5c"/>
        <path id="Path_916" data-name="Path 916" d="M31.367,29.656l13.377-6.174L31.789,17.5a1.014,1.014,0,0,0-.845,0l-12.955,5.98Z" fill="#2cafac"/>
        <path id="Path_917" data-name="Path 917" d="M30.612,30.965,17.284,24.814V38.523a1.011,1.011,0,0,0,.585.914l12.743,5.882Z" fill="#2cafac"/>
        <path id="Path_918" data-name="Path 918" d="M32.121,30.965V45.329l12.745-5.886a1.043,1.043,0,0,0,.584-.914V24.814Z" fill="#2cafac"/>
        <path id="Path_919" data-name="Path 919" d="M44.992,132.007,31.45,124.141a1.451,1.451,0,0,0-1.506,0L16.4,132.007a1.607,1.607,0,0,0,0,2.753l13.541,7.866a1.452,1.452,0,0,0,1.507,0l13.541-7.866a1.607,1.607,0,0,0,0-2.753Z" fill="#30b52b"/>
        <path id="Path_920" data-name="Path 920" d="M43.517,143.223l-12.8,7.441-12.8-7.441a1.482,1.482,0,0,0-2.03.52l-.039.07a1.625,1.625,0,0,0,.564,2.163l13.542,7.866a1.451,1.451,0,0,0,1.506,0l13.542-7.866a1.624,1.624,0,0,0,.564-2.163,1.482,1.482,0,0,0-2-.629c-.024.012-.048.025-.071.039Z" fill="#30b52b"/>
        <path id="Path_921" data-name="Path 921" d="M43.517,137.351l-12.8,7.441-12.8-7.441a1.482,1.482,0,0,0-2.03.52l-.039.07A1.625,1.625,0,0,0,16.4,140.1l13.542,7.866a1.451,1.451,0,0,0,1.506,0L44.993,140.1a1.624,1.624,0,0,0,.564-2.163,1.482,1.482,0,0,0-2-.629c-.024.012-.048.025-.071.039Z" fill="#30b52b"/>
        <path id="Path_922" data-name="Path 922" d="M43.144,234.193h-.829v20.366a2.458,2.458,0,0,1-2.449,2.449H24.777v.755a1.568,1.568,0,0,0,1.567,1.566h16.8a1.567,1.567,0,0,0,1.566-1.566v-22a1.564,1.564,0,0,0-1.562-1.566" fill="#ff8b00"/>
        <path id="Path_923" data-name="Path 923" d="M31.456,256.131h8.4a1.569,1.569,0,0,0,1.567-1.566V232.55a1.57,1.57,0,0,0-1.566-1.567H28.664v.516a1.54,1.54,0,0,1,.01.166v4.294a2.21,2.21,0,0,1-2.208,2.207H21.5v16.4a1.568,1.568,0,0,0,1.567,1.566h8.394Zm.318-5.324H26.3a.741.741,0,1,1,0-1.481h5.478a.741.741,0,0,1,0,1.481Zm5.477-3.778H26.3a.741.741,0,0,1,0-1.481H37.251a.741.741,0,1,1,0,1.481M26.3,241.535H37.251a.741.741,0,1,1,0,1.481H26.3a.741.741,0,0,1,0-1.481" fill="#ff8b00"/>
        <path id="Path_924" data-name="Path 924" d="M22.177,237.276h4.305a1.314,1.314,0,0,0,1.3-1.3v-4.307a.659.659,0,0,0-.657-.66h-.009a.65.65,0,0,0-.462.2l-4.944,4.949a.66.66,0,0,0,.464,1.125" fill="#ff8b00"/>
        <path id="Path_925" data-name="Path 925" d="M410.255,108.895l-12.309-7.106a.5.5,0,0,0-.5,0L385.5,108.682a.5.5,0,0,0-.173.692v0a15.04,15.04,0,0,0,25.091.22.506.506,0,0,0-.156-.7l-.011-.006Z" fill="#2b4bb2"/>
        <path id="Path_926" data-name="Path 926" d="M397.135,100.782,385,107.8a.459.459,0,0,1-.64-.1.494.494,0,0,1-.062-.121,15.062,15.062,0,0,1,12.559-20.986.506.506,0,0,1,.529.48v13.287a.5.5,0,0,1-.248.428" fill="#2b4bb2"/>
        <path id="Path_927" data-name="Path 927" d="M398.973,86.588a.5.5,0,0,0-.529.479v13.578a.5.5,0,0,0,.249.431l12.035,6.949a.48.48,0,0,0,.662-.151.389.389,0,0,0,.036-.067,15.059,15.059,0,0,0-12.452-21.219" fill="#2b4bb2"/>
        <path id="Path_928" data-name="Path 928" d="M394.766,188.612v1.373a2.289,2.289,0,0,0,4.576.11c0-.037,0-.074,0-.11v-1.373Z" fill="red"/>
        <path id="Path_929" data-name="Path 929" d="M386.071,183.12a2.289,2.289,0,1,0-.11,4.576c.037,0,.073,0,.11,0h21.968a2.289,2.289,0,0,0,.11-4.576H386.071Z" fill="red"/>
        <path id="Path_930" data-name="Path 930" d="M397.053,162.983a10.047,10.047,0,0,0-10.068,10.025v9.2h20.137v-9.154A10.047,10.047,0,0,0,397.1,162.983Z" fill="red"/>
      </g>
    </g>
  </g>
</svg>
