<svg xmlns="http://www.w3.org/2000/svg" width="145.539" height="31.893" viewBox="0 0 145.539 31.893">
  <g id="Group_978" data-name="Group 978" transform="translate(-21.5 -13)">
    <g id="Group_914" data-name="Group 914" transform="translate(-516 -99.25)">
      <circle id="Ellipse_111" data-name="Ellipse 111" cx="7.669" cy="7.669" r="7.669" transform="translate(546.63 120.102)" fill="#fff"/>
      <g id="Group_892" data-name="Group 892" transform="translate(554.223 125.945)">
        <ellipse id="Ellipse_112" data-name="Ellipse 112" cx="2.556" cy="2.191" rx="2.556" ry="2.191" transform="translate(11.398 0)" fill="#fff"/>
        <line id="Line_15" data-name="Line 15" x2="14.016" transform="translate(0 2.112)" fill="none" stroke="#fff" stroke-width="2"/>
      </g>
      <g id="Group_895" data-name="Group 895" transform="translate(537.5 125.748)">
        <circle id="Ellipse_112-2" data-name="Ellipse 112" cx="2.23" cy="2.23" r="2.23" fill="#fff"/>
        <line id="Line_15-2" data-name="Line 15" x1="14.016" transform="translate(2.15 2.309)" fill="none" stroke="#fff" stroke-width="2"/>
      </g>
      <g id="Group_893" data-name="Group 893" transform="translate(556.373 127.978) rotate(90)">
        <circle id="Ellipse_112-3" data-name="Ellipse 112" cx="2.23" cy="2.23" r="2.23" transform="translate(11.706 0)" fill="#fff"/>
        <line id="Line_15-3" data-name="Line 15" x2="14.016" transform="translate(0 2.309)" fill="none" stroke="#fff" stroke-width="2"/>
      </g>
      <g id="Group_894" data-name="Group 894" transform="translate(551.914 128.416) rotate(-90)">
        <circle id="Ellipse_112-4" data-name="Ellipse 112" cx="2.23" cy="2.23" r="2.23" transform="translate(11.706 0)" fill="#fff"/>
        <line id="Line_15-4" data-name="Line 15" x2="14.016" transform="translate(0 2.15)" fill="none" stroke="#fff" stroke-width="2"/>
      </g>
      <g id="Group_896" data-name="Group 896" transform="translate(543.833 115.111) rotate(45)">
        <circle id="Ellipse_112-5" data-name="Ellipse 112" cx="2.23" cy="2.23" r="2.23" fill="#fff"/>
        <line id="Line_15-5" data-name="Line 15" x1="14.016" transform="translate(2.15 2.309)" fill="none" stroke="#fff" stroke-width="2"/>
      </g>
      <g id="Group_899" data-name="Group 899" transform="translate(540.68 138.123) rotate(-45)">
        <circle id="Ellipse_112-6" data-name="Ellipse 112" cx="2.23" cy="2.23" r="2.23" transform="translate(0 0)" fill="#fff"/>
        <line id="Line_15-6" data-name="Line 15" x1="14.016" transform="translate(2.15 2.15)" fill="none" stroke="#fff" stroke-width="2"/>
      </g>
      <g id="Group_897" data-name="Group 897" transform="translate(568.25 118.265) rotate(135)">
        <circle id="Ellipse_112-7" data-name="Ellipse 112" cx="2.23" cy="2.23" r="2.23" transform="translate(0 0)" fill="#fff"/>
        <line id="Line_15-7" data-name="Line 15" x1="14.016" transform="translate(2.15 2.15)" fill="none" stroke="#fff" stroke-width="2"/>
      </g>
      <g id="Group_898" data-name="Group 898" transform="translate(565.096 141.277) rotate(-135)">
        <circle id="Ellipse_112-8" data-name="Ellipse 112" cx="2.23" cy="2.23" r="2.23" transform="translate(0 0)" fill="#fff"/>
        <line id="Line_15-8" data-name="Line 15" x1="14.016" transform="translate(2.15 2.309)" fill="none" stroke="#fff" stroke-width="2"/>
      </g>
      <g id="XDC-Icon-128X128" transform="translate(548.822 122.293)">
        <path id="Combined_Shape" data-name="Combined Shape" d="M5.478,10.956A5.521,5.521,0,0,1,1.791,9.551,5.455,5.455,0,0,1,0,6.093l1.238-.615L0,4.863A5.455,5.455,0,0,1,1.791,1.406a5.538,5.538,0,0,1,7.374,0,5.456,5.456,0,0,1,1.791,3.458l-1.238.615,1.238.615A5.455,5.455,0,0,1,9.165,9.551,5.521,5.521,0,0,1,5.478,10.956Z" transform="translate(0 0)" fill="#102c78"/>
        <path id="X" d="M.863,4.245l.921-1.557L2.7,4.245h.865L2.247,2.1,3.538,0H2.681l-.9,1.534L.886,0H.029L1.323,2.1,0,4.245Z" transform="translate(3.658 3.542)" fill="#fff"/>
      </g>
    </g>
    <text id="SmartHub" transform="translate(59.039 37)" fill="#fff" font-size="22" font-family="Inter-Regular, Inter"><tspan x="0" y="0">Smart</tspan><tspan y="0">Hub</tspan></text>
  </g>
</svg>
