<svg width="146" height="32" viewBox="0 0 146 32" fill="none" xmlns="http://www.w3.org/2000/svg">
<g clip-path="url(#clip0_123_88)">
<path d="M16.799 23.1901C21.0345 23.1901 24.468 19.7565 24.468 15.5211C24.468 11.2856 21.0345 7.85205 16.799 7.85205C12.5635 7.85205 9.13 11.2856 9.13 15.5211C9.13 19.7565 12.5635 23.1901 16.799 23.1901Z" fill="white"/>
<path d="M30.677 18.0769C32.0886 18.0769 33.233 17.096 33.233 15.8859C33.233 14.6759 32.0886 13.6949 30.677 13.6949C29.2653 13.6949 28.121 14.6759 28.121 15.8859C28.121 17.096 29.2653 18.0769 30.677 18.0769Z" fill="white"/>
<path d="M30.739 16.807H16.723V14.807H30.739V16.807Z" fill="white"/>
<path d="M2.23 17.958C3.4616 17.958 4.46 16.9596 4.46 15.728C4.46 14.4965 3.4616 13.498 2.23 13.498C0.998405 13.498 0 14.4965 0 15.728C0 16.9596 0.998405 17.958 2.23 17.958Z" fill="white"/>
<path d="M16.166 16.807H2.15002V14.807H16.166V16.807Z" fill="white"/>
<path d="M14.413 29.6641C14.413 30.8957 15.4115 31.8941 16.643 31.8941C17.8746 31.8941 18.873 30.8957 18.873 29.6641C18.873 28.4325 17.8746 27.4341 16.643 27.4341C15.4115 27.4341 14.413 28.4325 14.413 29.6641Z" fill="white"/>
<path d="M15.5641 29.744V15.728H17.5641V29.744H15.5641Z" fill="white"/>
<path d="M18.8741 2.22996C18.8741 0.998366 17.8757 -3.91006e-05 16.6441 -3.91006e-05C15.4125 -3.91006e-05 14.4141 0.998366 14.4141 2.22996C14.4141 3.46156 15.4125 4.45996 16.6441 4.45996C17.8757 4.45996 18.8741 3.46156 18.8741 2.22996Z" fill="white"/>
<path d="M17.5641 2.15002V16.166H15.5641V2.15002H17.5641Z" fill="white"/>
<path d="M4.75616 7.59151C5.62703 8.46238 7.03899 8.46238 7.90986 7.59151C8.78073 6.72064 8.78073 5.30868 7.90986 4.43781C7.03899 3.56694 5.62703 3.56694 4.75616 4.43781C3.88529 5.30868 3.88529 6.72064 4.75616 7.59151Z" fill="white"/>
<path d="M15.4243 16.6319L5.51352 6.7211L6.92773 5.30688L16.8385 15.2177L15.4243 16.6319Z" fill="white"/>
<path d="M7.91048 27.4499C8.78135 26.579 8.78135 25.1671 7.91048 24.2962C7.03961 23.4253 5.62765 23.4253 4.75678 24.2962C3.88591 25.1671 3.88591 26.579 4.75678 27.4499C5.62765 28.3208 7.03961 28.3208 7.91048 27.4499Z" fill="white"/>
<path d="M16.8384 16.6693L6.92764 26.5801L5.51343 25.1659L15.4242 15.2551L16.8384 16.6693Z" fill="white"/>
<path d="M26.0195 4.43817C25.1486 5.30904 25.1486 6.72099 26.0195 7.59186C26.8903 8.46273 28.3023 8.46273 29.1732 7.59186C30.044 6.72099 30.044 5.30904 29.1732 4.43817C28.3023 3.5673 26.8903 3.5673 26.0195 4.43817Z" fill="white"/>
<path d="M17.0915 15.2188L27.0023 5.30795L28.4165 6.72217L18.5057 16.633L17.0915 15.2188Z" fill="white"/>
<path d="M29.1728 24.2964C28.3019 23.4256 26.89 23.4256 26.0191 24.2964C25.1482 25.1673 25.1482 26.5793 26.0191 27.4501C26.89 28.321 28.3019 28.321 29.1728 27.4501C30.0437 26.5793 30.0437 25.1673 29.1728 24.2964Z" fill="white"/>
<path d="M18.5046 15.256L28.4154 25.1668L27.0012 26.5811L17.0904 16.6702L18.5046 15.256Z" fill="white"/>
<path d="M16.8 20.999C15.4399 21.0008 14.127 20.5005 13.113 19.594C12.1109 18.7009 11.4732 17.4697 11.322 16.136L12.56 15.521L11.322 14.906C11.4735 13.5726 12.1111 12.3418 13.113 11.449C14.1277 10.5436 15.4401 10.0432 16.8 10.0432C18.1599 10.0432 19.4723 10.5436 20.487 11.449C21.4891 12.3421 22.1267 13.5732 22.278 14.907L21.04 15.522L22.278 16.137C22.1266 17.4704 21.4889 18.7012 20.487 19.594C19.473 20.5005 18.1601 21.0008 16.8 20.999V20.999Z" fill="#102C78"/>
<path d="M15.843 17.83L16.764 16.273L17.68 17.83H18.545L17.227 15.685L18.518 13.585H17.661L16.761 15.119L15.866 13.585H15.009L16.303 15.685L14.98 17.83H15.843Z" fill="white"/>
<path d="M47.8125 12.3984C47.7396 11.7161 47.4323 11.1849 46.8906 10.8047C46.3542 10.4245 45.6563 10.2344 44.7969 10.2344C44.1927 10.2344 43.6745 10.3255 43.2422 10.5078C42.8099 10.6901 42.4792 10.9375 42.25 11.25C42.0208 11.5625 41.9036 11.9193 41.8984 12.3203C41.8984 12.6536 41.974 12.9427 42.125 13.1875C42.2813 13.4323 42.4922 13.6406 42.7578 13.8125C43.0234 13.9792 43.3177 14.1198 43.6406 14.2344C43.9635 14.349 44.2891 14.4453 44.6172 14.5234L46.1172 14.8984C46.7214 15.0391 47.3021 15.2292 47.8594 15.4688C48.4219 15.7083 48.9245 16.0104 49.3672 16.375C49.8151 16.7396 50.1693 17.1797 50.4297 17.6953C50.6901 18.2109 50.8203 18.8151 50.8203 19.5078C50.8203 20.4453 50.5807 21.2708 50.1016 21.9844C49.6224 22.6927 48.9297 23.2474 48.0234 23.6484C47.1224 24.0443 46.0313 24.2422 44.75 24.2422C43.5052 24.2422 42.4245 24.0495 41.5078 23.6641C40.5964 23.2786 39.8828 22.7161 39.3672 21.9766C38.8568 21.237 38.5807 20.3359 38.5391 19.2734H41.3906C41.4323 19.8307 41.6042 20.2943 41.9062 20.6641C42.2083 21.0339 42.6016 21.3099 43.0859 21.4922C43.5755 21.6745 44.1224 21.7656 44.7266 21.7656C45.3568 21.7656 45.9089 21.6719 46.3828 21.4844C46.862 21.2917 47.237 21.026 47.5078 20.6875C47.7786 20.3438 47.9167 19.9427 47.9219 19.4844C47.9167 19.0677 47.7943 18.724 47.5547 18.4531C47.3151 18.1771 46.9792 17.9479 46.5469 17.7656C46.1198 17.5781 45.6198 17.4115 45.0469 17.2656L43.2266 16.7969C41.9089 16.4583 40.8672 15.9453 40.1016 15.2578C39.3411 14.5651 38.9609 13.6458 38.9609 12.5C38.9609 11.5573 39.2161 10.7318 39.7266 10.0234C40.2422 9.3151 40.9427 8.76563 41.8281 8.375C42.7135 7.97917 43.7161 7.78125 44.8359 7.78125C45.9714 7.78125 46.9661 7.97917 47.8203 8.375C48.6797 8.76563 49.3542 9.3099 49.8438 10.0078C50.3333 10.7005 50.5859 11.4974 50.6016 12.3984H47.8125Z" fill="white"/>
<path d="M53.2793 24V12H55.9824V14.0391H56.123C56.373 13.3516 56.7871 12.8151 57.3652 12.4297C57.9434 12.0391 58.6335 11.8438 59.4355 11.8438C60.248 11.8438 60.9329 12.0417 61.4902 12.4375C62.0527 12.8281 62.4486 13.362 62.6777 14.0391H62.8027C63.0684 13.3724 63.5163 12.8411 64.1465 12.4453C64.7819 12.0443 65.5345 11.8438 66.4043 11.8438C67.5085 11.8438 68.4095 12.1927 69.1074 12.8906C69.8053 13.5885 70.1543 14.6068 70.1543 15.9453V24H67.3184V16.3828C67.3184 15.638 67.1204 15.0938 66.7246 14.75C66.3288 14.401 65.8444 14.2266 65.2715 14.2266C64.5892 14.2266 64.0553 14.4401 63.6699 14.8672C63.2897 15.2891 63.0996 15.8385 63.0996 16.5156V24H60.3262V16.2656C60.3262 15.6458 60.1387 15.151 59.7637 14.7813C59.3939 14.4115 58.9095 14.2266 58.3105 14.2266C57.9043 14.2266 57.5345 14.3307 57.2012 14.5391C56.8678 14.7422 56.6022 15.0313 56.4043 15.4063C56.2064 15.776 56.1074 16.2083 56.1074 16.7031V24H53.2793Z" fill="white"/>
<path d="M76.4766 24.2422C75.7161 24.2422 75.0312 24.1068 74.4219 23.8359C73.8177 23.5599 73.3385 23.1536 72.9844 22.6172C72.6354 22.0807 72.4609 21.4193 72.4609 20.6328C72.4609 19.9557 72.5859 19.3958 72.8359 18.9531C73.0859 18.5104 73.4271 18.1563 73.8594 17.8906C74.2917 17.625 74.7786 17.4245 75.3203 17.2891C75.8672 17.1484 76.4323 17.0469 77.0156 16.9844C77.7188 16.9115 78.2891 16.8464 78.7266 16.7891C79.1641 16.7266 79.4818 16.6328 79.6797 16.5078C79.8828 16.3776 79.9844 16.1771 79.9844 15.9062V15.8594C79.9844 15.2708 79.8099 14.8151 79.4609 14.4922C79.112 14.1693 78.6094 14.0078 77.9531 14.0078C77.2604 14.0078 76.7109 14.1589 76.3047 14.4609C75.9036 14.763 75.6328 15.1198 75.4922 15.5313L72.8516 15.1563C73.0599 14.4271 73.4036 13.8177 73.8828 13.3281C74.362 12.8333 74.9479 12.4635 75.6406 12.2188C76.3333 11.9688 77.099 11.8438 77.9375 11.8438C78.5156 11.8438 79.0911 11.9115 79.6641 12.0469C80.237 12.1823 80.7604 12.4062 81.2344 12.7187C81.7083 13.026 82.0885 13.4453 82.375 13.9766C82.6667 14.5078 82.8125 15.1719 82.8125 15.9688V24H80.0938V22.3516H80C79.8281 22.6849 79.5859 22.9974 79.2734 23.2891C78.9661 23.5755 78.5781 23.8073 78.1094 23.9844C77.6458 24.1563 77.1016 24.2422 76.4766 24.2422ZM77.2109 22.1641C77.7786 22.1641 78.2708 22.0521 78.6875 21.8281C79.1042 21.599 79.4245 21.2969 79.6484 20.9219C79.8776 20.5469 79.9922 20.138 79.9922 19.6953V18.2812C79.9036 18.3542 79.7526 18.4219 79.5391 18.4844C79.3307 18.5469 79.0964 18.6016 78.8359 18.6484C78.5755 18.6953 78.3177 18.737 78.0625 18.7734C77.8073 18.8099 77.5859 18.8411 77.3984 18.8672C76.9766 18.9245 76.599 19.0182 76.2656 19.1484C75.9323 19.2786 75.6693 19.4609 75.4766 19.6953C75.2839 19.9245 75.1875 20.2214 75.1875 20.5859C75.1875 21.1068 75.3776 21.5 75.7578 21.7656C76.138 22.0312 76.6224 22.1641 77.2109 22.1641Z" fill="white"/>
<path d="M85.6562 24V12H88.3984V14H88.5234C88.7422 13.3073 89.1172 12.7734 89.6484 12.3984C90.1849 12.0182 90.7969 11.8281 91.4844 11.8281C91.6406 11.8281 91.8151 11.8359 92.0078 11.8516C92.2057 11.862 92.3698 11.8802 92.5 11.9062V14.5078C92.3802 14.4661 92.1901 14.4297 91.9297 14.3984C91.6745 14.362 91.4271 14.3438 91.1875 14.3438C90.6719 14.3438 90.2083 14.4557 89.7969 14.6797C89.3906 14.8984 89.0703 15.2031 88.8359 15.5938C88.6016 15.9844 88.4844 16.4349 88.4844 16.9453V24H85.6562Z" fill="white"/>
<path d="M101.016 12V14.1875H94.1172V12H101.016ZM95.8203 9.125H98.6484V20.3906C98.6484 20.7708 98.7057 21.0625 98.8203 21.2656C98.9401 21.4635 99.0964 21.599 99.2891 21.6719C99.4818 21.7448 99.6953 21.7812 99.9297 21.7812C100.107 21.7812 100.268 21.7682 100.414 21.7422C100.565 21.7161 100.68 21.6927 100.758 21.6719L101.234 23.8828C101.083 23.9349 100.867 23.9922 100.586 24.0547C100.31 24.1172 99.9714 24.1536 99.5703 24.1641C98.862 24.1849 98.224 24.0781 97.6562 23.8438C97.0885 23.6042 96.638 23.2344 96.3047 22.7344C95.9766 22.2344 95.8151 21.6094 95.8203 20.8594V9.125Z" fill="white"/>
<path d="M103.865 24V8H105.803V15.125H114.334V8H116.271V24H114.334V16.8438H105.803V24H103.865Z" fill="white"/>
<path d="M127.463 19.0938V12H129.307V24H127.463V21.9688H127.338C127.057 22.5781 126.619 23.0964 126.025 23.5234C125.432 23.9453 124.682 24.1562 123.775 24.1562C123.025 24.1562 122.359 23.9922 121.775 23.6641C121.192 23.3307 120.734 22.8307 120.4 22.1641C120.067 21.4922 119.9 20.6458 119.9 19.625V12H121.744V19.5C121.744 20.375 121.989 21.0729 122.479 21.5938C122.973 22.1146 123.604 22.375 124.369 22.375C124.827 22.375 125.294 22.2578 125.768 22.0234C126.247 21.7891 126.648 21.4297 126.971 20.9453C127.299 20.4609 127.463 19.8438 127.463 19.0938Z" fill="white"/>
<path d="M132.934 24V8H134.777V13.9062H134.934C135.069 13.6979 135.257 13.4323 135.496 13.1094C135.741 12.7812 136.09 12.4896 136.543 12.2344C137.001 11.974 137.621 11.8438 138.402 11.8438C139.413 11.8438 140.303 12.0964 141.074 12.6016C141.845 13.1068 142.447 13.8229 142.879 14.75C143.311 15.6771 143.527 16.7708 143.527 18.0312C143.527 19.3021 143.311 20.4036 142.879 21.3359C142.447 22.263 141.848 22.9818 141.082 23.4922C140.316 23.9974 139.434 24.25 138.434 24.25C137.663 24.25 137.046 24.1224 136.582 23.8672C136.118 23.6068 135.762 23.3125 135.512 22.9844C135.262 22.651 135.069 22.375 134.934 22.1562H134.715V24H132.934ZM134.746 18C134.746 18.9063 134.879 19.7057 135.145 20.3984C135.41 21.0859 135.798 21.625 136.309 22.0156C136.819 22.401 137.444 22.5938 138.184 22.5938C138.954 22.5938 139.598 22.3906 140.113 21.9844C140.634 21.5729 141.025 21.0208 141.285 20.3281C141.551 19.6302 141.684 18.8542 141.684 18C141.684 17.1563 141.553 16.3958 141.293 15.7188C141.038 15.0365 140.65 14.4974 140.129 14.1016C139.613 13.7005 138.965 13.5 138.184 13.5C137.434 13.5 136.803 13.6901 136.293 14.0703C135.783 14.4453 135.397 14.9714 135.137 15.6484C134.876 16.3203 134.746 17.1042 134.746 18Z" fill="white"/>
</g>
<defs>
<clipPath id="clip0_123_88">
<rect width="145.539" height="31.893" fill="white"/>
</clipPath>
</defs>
</svg>
