<svg xmlns="http://www.w3.org/2000/svg" width="22" height="22" viewBox="0 0 22 22">
  <g id="code" transform="translate(-515 -336)">
    <rect id="Rectangle_362" data-name="Rectangle 362" width="22" height="22" rx="2" transform="translate(515 336)" fill="#3163f0"/>
    <g id="Group_162" data-name="Group 162" transform="translate(-265.901 40.972)">
      <rect id="Rectangle_339" data-name="Rectangle 339" width="17" height="17" transform="translate(782.901 298.028)" fill="none"/>
      <path id="Icon_ionic-ios-arrow-back" data-name="Icon ionic-ios-arrow-back" d="M12.737,10.505,16,7.244a.616.616,0,1,0-.873-.87l-3.7,3.7a.615.615,0,0,0-.018.85l3.713,3.721a.616.616,0,1,0,.873-.87Z" transform="translate(771.75 295.686)" fill="#fff"/>
      <path id="Icon_ionic-ios-arrow-back-2" data-name="Icon ionic-ios-arrow-back" d="M14.7,10.505,11.432,7.244a.616.616,0,1,1,.873-.87l3.7,3.7a.615.615,0,0,1,.018.85l-3.713,3.721a.616.616,0,0,1-.873-.87Z" transform="translate(783.833 295.686)" fill="#fff"/>
    </g>
  </g>
</svg>
