<svg xmlns="http://www.w3.org/2000/svg" width="32.396" height="32.396" viewBox="0 0 32.396 32.396">
  <g id="Successful_transaction" data-name="Successful transaction" transform="translate(-18 -19)">
    <path id="Path_178" data-name="Path 178" d="M34.2,19A16.2,16.2,0,1,0,50.4,35.2,16.214,16.214,0,0,0,34.2,19Z" fill="#fff"/>
    <path id="Path_179" data-name="Path 179" d="M49.025,42.968,39.945,52a.149.149,0,0,1-.2,0l-3.78-3.78a.972.972,0,1,0-1.374,1.374l3.78,3.78a2.128,2.128,0,0,0,1.473.638,1.867,1.867,0,0,0,1.473-.638L50.4,44.293a.955.955,0,1,0-1.374-1.325Z" transform="translate(-8.299 -12.04)" fill="#416be0"/>
  </g>
</svg>
