<svg xmlns="http://www.w3.org/2000/svg" width="32.002" height="32" viewBox="0 0 32.002 32">
  <g id="Tag" transform="translate(-0.831)">
    <path id="Path_16" data-name="Path 16" d="M30.722,0H22.284a5.868,5.868,0,0,0-3.6,1.491L2.061,18.113a4.23,4.23,0,0,0,0,5.966l6.692,6.692a4.234,4.234,0,0,0,5.966,0L31.341,14.149a5.868,5.868,0,0,0,1.491-3.6V2.11A2.116,2.116,0,0,0,30.722,0ZM25.448,10.548a3.164,3.164,0,1,1,3.164-3.164A3.164,3.164,0,0,1,25.448,10.548Z" transform="translate(0)" fill="#416be0"/>
  </g>
</svg>
