<svg xmlns="http://www.w3.org/2000/svg" width="43" height="43" viewBox="0 0 43 43">
  <g id="Token" transform="translate(-2.5 -2.5)">
    <path id="Path_805" data-name="Path 805" d="M24,2.5A21.5,21.5,0,1,0,45.5,24,21.519,21.519,0,0,0,24,2.5Zm8.147,8.872L33.46,9.561A.376.376,0,0,1,34,9.471l1.041.769A20.926,20.926,0,0,1,37.9,13.046l.679.86a.412.412,0,0,1-.045.543l-1.765,1.4a.412.412,0,0,1-.543-.045l-.634-.86a17.516,17.516,0,0,0-2.444-2.4l-.905-.634A.419.419,0,0,1,32.147,11.372ZM20.786,6.619,22.1,6.438a15.006,15.006,0,0,1,4.028,0l1.132.136a.441.441,0,0,1,.362.453l-.226,2.218a.441.441,0,0,1-.453.362l-1.132-.181a12.187,12.187,0,0,0-3.395.045l-1.132.136a.406.406,0,0,1-.453-.317l-.362-2.218A.406.406,0,0,1,20.786,6.619ZM9.471,13.952l.769-1.041a18.873,18.873,0,0,1,2.852-2.852l.86-.679a.412.412,0,0,1,.543.045l1.4,1.765a.412.412,0,0,1-.045.543l-.905.679a17.516,17.516,0,0,0-2.4,2.444l-.634.905a.376.376,0,0,1-.543.091L9.561,14.54A.429.429,0,0,1,9.471,13.952Zm-2.4,13.579a.406.406,0,0,1-.453-.317L6.438,25.9a15.006,15.006,0,0,1,0-4.028l.136-1.132a.441.441,0,0,1,.453-.362l2.218.226a.441.441,0,0,1,.362.453l-.181,1.132a12.187,12.187,0,0,0,.045,3.395l.181,1.086a.406.406,0,0,1-.317.453Zm8.781,9.1L14.54,38.439a.376.376,0,0,1-.543.091l-1.041-.769A18.873,18.873,0,0,1,10.1,34.908l-.679-.86a.412.412,0,0,1,.045-.543l1.765-1.4a.412.412,0,0,1,.543.045l.679.86a17.516,17.516,0,0,0,2.444,2.4l.905.634A.557.557,0,0,1,15.853,36.628Zm11.361,4.753-1.313.181a15.006,15.006,0,0,1-4.028,0l-1.132-.136a.441.441,0,0,1-.362-.453l.226-2.218a.441.441,0,0,1,.453-.362l1.132.136a12.187,12.187,0,0,0,3.395-.045l1.086-.181a.406.406,0,0,1,.453.317l.362,2.218A.4.4,0,0,1,27.214,41.381Zm1-10.094-3.983-2.263a.411.411,0,0,0-.453,0l-3.983,2.263a.892.892,0,0,1-1.313-.951l.905-4.481a.365.365,0,0,0-.136-.407l-3.395-3.123a.874.874,0,0,1,.5-1.539l4.572-.5a.394.394,0,0,0,.362-.272l1.9-4.164a.883.883,0,0,1,1.629,0l1.9,4.164c.045.136.226.226.362.272l4.572.5a.881.881,0,0,1,.5,1.539L28.753,25.4a.365.365,0,0,0-.136.407l.905,4.481A.894.894,0,0,1,28.209,31.287Zm10.32,2.761-.769,1.041a18.873,18.873,0,0,1-2.852,2.852l-.86.679a.412.412,0,0,1-.543-.045l-1.4-1.765a.412.412,0,0,1,.045-.543l.86-.679a17.516,17.516,0,0,0,2.4-2.444l.634-.905a.376.376,0,0,1,.543-.091l1.811,1.313A.4.4,0,0,1,38.529,34.048Zm2.942-6.789a.441.441,0,0,1-.453.362L38.8,27.395a.441.441,0,0,1-.362-.453l.136-1.132a12.187,12.187,0,0,0-.045-3.395l-.136-1.132a.406.406,0,0,1,.317-.453l2.218-.362a.406.406,0,0,1,.453.317l.181,1.313a15.006,15.006,0,0,1,0,4.028Z" fill="#0089ff"/>
  </g>
</svg>
