<svg xmlns="http://www.w3.org/2000/svg" width="26" height="26" viewBox="0 0 26 26">
  <g id="Twitter_Inactive" transform="translate(-889 -91)">
    <g id="Rectangle_569" data-name="Rectangle 569" transform="translate(889 91)" fill="#fff" stroke="#f0f0f0" stroke-width="1">
      <rect width="26" height="26" rx="2" stroke="none"/>
      <rect x="0.5" y="0.5" width="25" height="25" rx="1.5" fill="none"/>
    </g>
    <path id="Twitter" d="M18.34,11.746a6.028,6.028,0,0,1-1.74.477,3.035,3.035,0,0,0,1.332-1.676,6.064,6.064,0,0,1-1.924.736,3.032,3.032,0,0,0-5.162,2.763A8.6,8.6,0,0,1,4.6,10.881a3.033,3.033,0,0,0,.938,4.045,3.021,3.021,0,0,1-1.372-.379c0,.013,0,.025,0,.038a3.032,3.032,0,0,0,2.43,2.97,3.046,3.046,0,0,1-.8.106,3,3,0,0,1-.57-.055,3.033,3.033,0,0,0,2.83,2.1,6.113,6.113,0,0,1-4.485,1.254,8.616,8.616,0,0,0,13.263-7.258q0-.2-.008-.392A6.136,6.136,0,0,0,18.34,11.746Z" transform="translate(891.426 87.674)" fill="#a2a2a2"/>
  </g>
</svg>
