<svg xmlns="http://www.w3.org/2000/svg" width="26" height="26" viewBox="0 0 26 26">
  <g id="webhook" transform="translate(-957 -399)">
    <rect id="Rectangle_481" data-name="Rectangle 481" width="26" height="26" transform="translate(957 399)" fill="none"/>
    <g id="webhooks" transform="translate(959.999 401.027)">
      <path id="Path_325" data-name="Path 325" d="M43.057,9.139c-.87,1.463-1.7,2.88-2.556,4.287a1.121,1.121,0,0,0-.152,1.114,2.084,2.084,0,0,1-1.477,2.837,2.128,2.128,0,0,1-2.62-1.767,2.172,2.172,0,0,1,1.935-2.441c.106-.015.213-.017.391-.03l1.916-3.214A5.256,5.256,0,0,1,38.73,5.588a4.929,4.929,0,0,1,1.477-3.157,5.014,5.014,0,0,1,6.256-.656A4.87,4.87,0,0,1,48.5,7.439l-1.751-.475a3.32,3.32,0,0,0-.706-3.034,3.03,3.03,0,0,0-1.9-.992,3.086,3.086,0,0,0-3.37,2.184c-.49,1.652.252,3,2.28,4.017Z" transform="translate(-33.248 0)" fill="#416be0"/>
      <path id="Path_326" data-name="Path 326" d="M106.28,41.275l1.853,3.268a5.045,5.045,0,0,1,4.636,8.866,4.962,4.962,0,0,1-6.473-.644l1.428-1.2c1.8,1.164,3.37,1.11,4.537-.269a3.128,3.128,0,0,0-.05-4.082c-1.182-1.329-2.765-1.369-4.679-.094-.794-1.409-1.6-2.806-2.37-4.225a1.442,1.442,0,0,0-1.13-.857,2.01,2.01,0,0,1-1.643-1.946,2.122,2.122,0,0,1,3.775-1.437,2,2,0,0,1,.368,1.976c-.068.2-.156.4-.252.638Z" transform="translate(-93.985 -33.867)" fill="#416be0"/>
      <path id="Path_327" data-name="Path 327" d="M13.76,122.258H10.005a5.146,5.146,0,0,1-2.477,3.436,5.008,5.008,0,0,1-3.358.6,5.1,5.1,0,0,1-4.156-4.564,5.051,5.051,0,0,1,3.871-5.275l.481,1.745c-2.123,1.083-2.858,2.448-2.264,4.154a3.092,3.092,0,0,0,3.622,2.007c1.647-.325,2.478-1.694,2.377-3.891,1.562,0,3.125-.016,4.687.008a1.711,1.711,0,0,0,1.54-.591,2.025,2.025,0,0,1,2.964.031,2.129,2.129,0,1,1-3.077,2.943,7.344,7.344,0,0,1-.454-.6Z" transform="translate(0 -106.006)" fill="#416be0"/>
    </g>
  </g>
</svg>
