<svg xmlns="http://www.w3.org/2000/svg" width="124.25" height="38.929" viewBox="0 0 124.25 38.929">
  <g id="Group_9" data-name="Group 9" transform="translate(0.003 0.001)">
    <path id="Path_2" data-name="Path 2" d="M2.78.126l6.5-.061L16.247,0a2.691,2.691,0,0,1,2.729,2.727A2.817,2.817,0,0,1,16.2,5.506L9.5,5.568l-6.776.063A2.691,2.691,0,0,1,0,2.9,2.817,2.817,0,0,1,2.78.126Z" transform="matrix(0.719, 0.695, -0.695, 0.719, 3.911, -0.001)" fill="#fff"/>
    <path id="Path_3" data-name="Path 3" d="M2.78.126,16.247,0a2.691,2.691,0,0,1,2.729,2.727A2.817,2.817,0,0,1,16.2,5.506L2.729,5.631A2.691,2.691,0,0,1,0,2.9,2.817,2.817,0,0,1,2.78.126Z" transform="matrix(0.719, 0.695, -0.695, 0.719, 21.758, 17.117)" fill="#fff"/>
    <path id="Path_4" data-name="Path 4" d="M2.728,0,16.19.126a2.817,2.817,0,0,1,2.779,2.779,2.691,2.691,0,0,1-2.728,2.728L2.78,5.508A2.817,2.817,0,0,1,0,2.728,2.691,2.691,0,0,1,2.728,0Z" transform="translate(35.237 3.983) rotate(135)" fill="#fff"/>
    <path id="Path_5" data-name="Path 5" d="M2.728,0,16.19.126a2.817,2.817,0,0,1,2.779,2.779,2.691,2.691,0,0,1-2.728,2.728L2.78,5.508A2.817,2.817,0,0,1,0,2.728,2.691,2.691,0,0,1,2.728,0Z" transform="translate(17.561 21.101) rotate(135)" fill="#fff"/>
    <path id="Path_1" data-name="Path 1" d="M25.9-43.32h3.632v-8.274c0-3.9-2.438-6.034-5.888-6.034a5.713,5.713,0,0,0-4.929,2.7,5.525,5.525,0,0,0-5.059-2.7,5.272,5.272,0,0,0-4.228,1.91v-1.705H5.8v14.1H9.432v-7.794c0-2.24,1.271-3.412,3.245-3.412,1.92,0,3.191,1.171,3.191,3.412v7.79h3.624v-7.79c0-2.24,1.271-3.412,3.216-3.412,1.92,0,3.191,1.171,3.191,3.412Zm6.147-7.1c0,4.4,2.905,7.332,6.537,7.332a5.7,5.7,0,0,0,4.773-2.3v2.062h3.658v-14.1H43.358v2.011a5.719,5.719,0,0,0-4.748-2.24c-3.656,0-6.561,2.826-6.561,7.231Zm11.31.051a3.828,3.828,0,0,1-3.813,4.15,3.884,3.884,0,0,1-3.787-4.2,3.792,3.792,0,0,1,3.787-4.1,3.829,3.829,0,0,1,3.812,4.15Zm10.842.025c0-2.724,1.3-3.539,3.45-3.539h.96v-3.742a5,5,0,0,0-4.41,2.393v-2.19H50.569v14.1H54.2ZM61.619-47.7c0,3.234,1.842,4.379,4.59,4.379h2.282v-3.007H66.806c-1.141,0-1.531-.408-1.531-1.349V-54.5h3.216v-2.928H65.277v-3.488H61.619v3.488H59.907V-54.5h1.712Zm9.5,4.379h3.632V-62.16H71.112Zm13.333-4.252-3.709-9.853H76.664l5.758,13.753-3.113,7.027h3.865l8.9-20.775H88.207Z" transform="translate(32.175 75.575)" fill="#fff"/>
  </g>
</svg>
